<svg xmlns="http://www.w3.org/2000/svg" viewBox="0 0 58 46"><defs><style>.cls-1{fill:#fff;}</style></defs><title>camera</title><g id="Layer_2" data-name="Layer 2"><g id="Layer_1-2" data-name="Layer 1"><path class="cls-1" d="M56,4H2A2,2,0,0,0,0,6V44a2,2,0,0,0,2,2H56a2,2,0,0,0,2-2V6A2,2,0,0,0,56,4Zm0,2V44H2V6Z"/><path class="cls-1" d="M37.56,9.65C22.54,3,8,17.54,14.65,32.56a15.3,15.3,0,0,0,7.79,7.79C37.46,47,52,32.46,45.35,17.44A15.3,15.3,0,0,0,37.56,9.65ZM37,38.4C23.52,44.65,10.35,31.48,16.6,18A13.23,13.23,0,0,1,23,11.6C36.48,5.35,49.65,18.52,43.4,32A13.23,13.23,0,0,1,37,38.4Z"/><path class="cls-1" d="M20,2H39a1,1,0,0,0,0-2H20a1,1,0,0,0,0,2Z"/></g></g></svg>