<svg xmlns="http://www.w3.org/2000/svg" viewBox="0 0 16.42 10.46"><defs><style>.cls-1{fill:#fff;fill-rule:evenodd;}</style></defs><title>g+</title><g id="Layer_2" data-name="Layer 2"><g id="Layer_2-2" data-name="Layer 2"><path class="cls-1" d="M9.79,4.15c-1.14,0-2.28,0-3.42,0-.33,0-.66,0-1,0-.07,0-.17.08-.17.12,0,.66,0,1.32,0,2H8a1.4,1.4,0,0,1-.09.33A2.69,2.69,0,0,1,4.76,8.28,3.06,3.06,0,0,1,2.25,4.64a3.25,3.25,0,0,1,.21-.71A3.07,3.07,0,0,1,5.88,2.2a2.83,2.83,0,0,1,1.31.68L8.72,1.35a.75.75,0,0,1-.13-.11A5,5,0,0,0,4.36.08,5.18,5.18,0,0,0,.08,4.35,5.15,5.15,0,0,0,.34,7.11a5.27,5.27,0,0,0,5.51,3.31A4.66,4.66,0,0,0,8.87,9,5.35,5.35,0,0,0,10.2,4.48c0-.28-.15-.33-.41-.33ZM15,4.31h-.34V4c0-.44,0-.87,0-1.32,0-.07-.09-.2-.12-.2-.39,0-.8,0-1.22,0V4.29H11.45v.33c0,.33,0,.66.05,1,.32,0,.63,0,1,0h.83v1.8h1.33V5.65h1.8V4.31Z"/></g></g></svg>