<svg xmlns="http://www.w3.org/2000/svg" viewBox="0 0 85.54 60.23"><defs><style>.cls-1{fill:#0097b0;}.cls-2,.cls-3{fill:#fff;}.cls-3{opacity:0.8;}</style></defs><title>Asset 4</title><g id="Layer_2" data-name="Layer 2"><g id="Layer_1-2" data-name="Layer 1"><g id="hNCIF2"><path class="cls-1" d="M26.29,51.51c-.14.12-.25.05-.34.14s-.16.12-.22,0,.11-.11.1-.22.11,0,.12-.06c.07-.19.45,0,.39-.22s.07-.3,0-.46a.81.81,0,0,1,0-.27c0-.14,0-.09-.14-.06s-.32.35-.59.28c-.28.26-.7.28-1,.55-.11.11-.23,0-.34.1s-.21.28-.35.29-.31.19-.5.13c-.06.3-.45.2-.56.45a.2.2,0,0,1-.08.08c-.15.08-.37.06-.48.2a.56.56,0,0,1-.46.24c-.13,0-.06.28-.28.22s-.22.13-.26.27-.16.09-.22.11a1.9,1.9,0,0,0-.71.39c-.18.16-.46.2-.57.45s-.27,0-.36.16a.7.7,0,0,1-.28.23,1.57,1.57,0,0,0-.41.32,1.72,1.72,0,0,1-.61.34c-.22.09-.35.3-.59.38s-.21.33-.46.32-.2.33-.47.29-.12.3-.29.3a.65.65,0,0,0-.41.18c-.06.05-.06.19-.2.15s-.27.06-.37.17-.3.3-.55.17a.17.17,0,0,0-.23.07c-.18.3-.52.23-.78.35-.08,0-.18,0-.17-.13s0-.2.11-.19.35-.16.55-.11.09,0,.1-.09,0-.13-.07-.12-.38-.19-.53.09a.54.54,0,0,1-.44.23c-.14,0-.31,0-.26-.21,0-.09,0-.12-.13-.12s-.22,0-.32,0a.27.27,0,0,1-.3-.18c-.08-.22-.26-.23-.43-.26s-.29,0-.44,0c-.32,0-.42-.09-.44-.41s0-.47,0-.71V55c0-.33,0-.32-.33-.34-.08,0-.21,0-.21-.1s-.08-.29.07-.32.15-.13.14-.23a13.82,13.82,0,0,0,.11-1.58c0-.11,0-.15.15-.16s.1-.14.06-.16c-.19-.12.18-.34-.09-.42.15-.15.09-.33.1-.5a.32.32,0,0,1,0-.09c.06-.15.39-.08.3-.36.13-.07,0-.32.27-.32.07,0,.05-.12.05-.18s0-.14.06-.13c.25,0,.3-.15.43-.3s.19-.06,0-.21a1.44,1.44,0,0,0-.67-.47c-.09,0-.08-.09-.09-.16,0-.27,0-.27-.3-.27H9.1c-.1,0-.11-.13-.07-.15.25-.19-.06-.44.09-.64,0,0-.09-.07-.16-.07s-.15,0-.16.09,0,.22,0,.33.06.2-.06.21,0-.13,0-.19-.07-.1-.14-.12-.18-.08-.33-.39c-.07-.14-.08-.37-.32-.37-.06,0-.11-.05-.08-.11.2-.34-.15-.44-.3-.51s-.1-.32-.32-.28c0,0,0-.16,0-.24s0-.19-.15-.15c-.3.1-.44-.22-.7-.27s-.21-.5,0-.64.2-.56.52-.66c0,0,0-.13,0-.2s-.08-.12-.08,0c0,.32-.38.06-.43.29H5.75c-.06,0-.1,0-.09-.11s0-.15,0-.2a.14.14,0,0,1,.14,0c.06,0,.1.1.16.15s.18.08.2,0,.07-.15.17-.14.14,0,.14,0c0-.3.21-.34.41-.41,0,0,0-.06,0-.09s0-.12-.08-.1-.32-.13-.37.16c0,.11-.23,0-.35.05s-.08.09,0,.1.22,0,.06.16S6,44.21,6,44s-.06-.1-.14-.12,0-.07,0-.13.07-.18-.06-.18a.42.42,0,0,1-.32-.15A2.11,2.11,0,0,1,5.22,43c-.07-.12-.24-.14-.33-.29a1.59,1.59,0,0,1-.31-1c0-.09,0-.19-.13-.18s-.18,0-.2.1-.35.17-.49.32-.19,0-.4-.28-.31-.37-.3-.73c0-.13,0-.28.18-.3.06,0,0-.09,0-.14L3.43,40c.29,0,.09-.27.23-.33A.63.63,0,0,0,4,39.15c0-.17.32-.06.23-.28a1.17,1.17,0,0,0,.45-.74c0-.17.29-.22.41-.38s.14-.09.2-.15.05-.08-.14-.2A.56.56,0,0,1,5,37.25s-.11-.09-.1-.11.12,0,.19,0,.08,0,.1,0,0-.07-.07-.08L5,37c-.22-.08,0-.34-.22-.45s-.29-.23-.23-.45-.09-.18-.16-.26c-.27-.3-.21-.5.17-.66.13-.06.38-.06.31-.32a.15.15,0,0,1,0-.09c.31.05.31-.27.49-.39s.22.08.32-.07a.56.56,0,0,1,.34-.2c.18,0,.1-.16.11-.25s0-.12-.09,0a.21.21,0,0,1-.14.07c-.26,0-.29,0-.31-.26,0-.11,0-.2-.15-.1a1.45,1.45,0,0,0-.5.45S5,34.05,5,34s0-.1,0-.14-.19-.08-.28,0,0,.13,0,.19a.71.71,0,0,1-.21.11c-.17,0-.11.13-.12.29s.07-.06,0-.07,0,.08,0,.13,0,.17,0,.18.06-.1.06-.24c.27.17.29.2.11.41s-.08.2-.15.26a.21.21,0,0,1-.25,0c-.07,0,0-.07,0-.11.07-.26,0-.37-.23-.28s-.47,0-.52.27a5,5,0,0,1-.75.15c-.11,0-.2,0-.22.15s-.09,0-.13,0-.14-.2-.21,0-.24.23-.49.12a.24.24,0,0,0-.27,0c-.15.1-.2,0-.19-.16s.19-.18,0-.29A.25.25,0,0,0,.63,35a.33.33,0,0,1-.33.12s-.14,0-.14,0,.11,0,.13-.08.08-.27.29-.21.09-.08.1-.15,0-.19,0-.3.1-.26.29-.2.1,0,.09-.11h.21A.09.09,0,0,0,1.43,34a.11.11,0,0,0-.06-.13c-.06,0-.21,0-.09-.12s.08-.3.19-.29.14-.35.38-.25A.08.08,0,0,0,2,33.12a.15.15,0,0,0-.09,0c-.09,0-.25.05-.21-.13s.17-.06.26-.09a.24.24,0,0,1,.11,0s0,0,0,0-.07,0,0,0,0,0,.06.05,0,0,0-.07c.06-.34.31-.38.6-.35,0,.14.13.07.18.13s.15.11.14,0A1.78,1.78,0,0,1,3.06,32c0-.07,0-.14.11-.14s.12,0,.08-.07A1,1,0,0,0,3,31.58a.1.1,0,0,0-.17,0c-.06.18-.22.28-.32.4a.7.7,0,0,1-.51.21c-.08,0,0,.21-.18.2a2.25,2.25,0,0,1-.74,0C1,32.35.71,32.21.69,32s-.25-.44-.31-.69a.89.89,0,0,0-.25-.49s-.1-.08-.1-.12a.92.92,0,0,1,0-.37.35.35,0,0,0,0-.3.59.59,0,0,1,0-.37c.05-.11.13-.21.1-.34.29-.06.18-.41.41-.53a.5.5,0,0,0,.23-.38c0-.19.37-.08.23-.34,0-.07.06-.13.11-.17.24-.18.25-.54.54-.68,0-.27.34-.35.39-.59s.37-.33.39-.6c.26,0,.13-.24.23-.32s.43-.33.41-.64c.22,0,.28-.21.39-.36s.16,0,.14-.16a.2.2,0,0,1,.11-.22,1.56,1.56,0,0,0,.63-.81c.06-.16.36-.06.25-.34,0-.12.16-.21.25-.31s.27-.22.34-.35.37,0,.4-.26a1.2,1.2,0,0,1,.19-.4c0-.05,0-.09.11-.09.41.05.46-.33.64-.55s.11-.18.22-.2a.11.11,0,0,0,.11-.14A.26.26,0,0,1,7,20.62a4.88,4.88,0,0,0,1.24-1.2,8.63,8.63,0,0,1,.92-1.07c.53-.42,1-1,1.54-1.34.11-.08.2-.21.31-.31s.45-.39.66-.59a2.73,2.73,0,0,1,.62-.6c.09-.06.11-.31.24-.3s.09-.22.22-.23A.27.27,0,0,0,13,14.7c.29,0,.32-.29.54-.38S13.71,14,14,14s.27-.19.41-.29c.51-.43,1-.84,1.57-1.25.15-.36.6-.38.79-.69.21,0,.21-.22.36-.41,0,0,0,0-.06,0s0,.06.05.05.13,0,.15-.06,0,0-.14,0-.13.07-.17.06,0,.27-.22.21-.22.09-.33.12-.28.2-.43.5c-.08.15-.32.11-.35.33,0,.06-.1-.06-.14-.09s-.05-.17-.08-.17a.17.17,0,0,0-.17.15c0,.11-.15.13-.15.15-.07.21-.36,0-.4.19s-.26.13-.35.24a.79.79,0,0,1-.56.34c-.11,0-.16.23-.33.33s-.48.38-.76.51-.37.43-.67.46c-.05.21-.29.2-.4.32a1,1,0,0,1-.41.31c-.16.07-.16.3-.38.37a.84.84,0,0,0-.42.28A6,6,0,0,1,9,17c-.29.2-.52.45-.81.63,0,.15-.11.13-.18.19s-.31.09-.31.29c-.16,0-.2.16-.29.24s-.37.36-.58.52A2.28,2.28,0,0,0,5.87,20a3.55,3.55,0,0,1-.48.62c-.12.14-.33.23-.27.48-.28.08-.22.3-.22.5s0,.1-.08.13S4.6,22,4.48,22s-.22.34-.37.38-.17.29-.37.28c0,0-.13.1-.13.15,0,.25-.27.12-.34.26-.38-.07-.78.12-1.15-.11-.37.1-.41-.28-.62-.43s-.08-.5-.45-.45c-.06,0,0-.07,0-.11a.44.44,0,0,0,0-.41A5.31,5.31,0,0,1,1,20c0-.33.26-.54.42-.79s.22-.35.47-.29c.07-.23.31-.32.4-.53s.39-.3.48-.55c.17,0,.23-.21.34-.21s.12-.24.26-.28.19-.16.27-.25a2.27,2.27,0,0,1,.41-.41c.18-.1.29-.3.45-.34S4.81,16,5,16s.27-.23.39-.35.34-.38.64-.3a.17.17,0,0,0,.21-.12c.09-.23.32-.28.48-.41s.12,0,.11-.09c-.11-.44.2-.35.44-.35.09,0,.11-.08.17-.12l1-.8c.28,0,.33-.29.53-.39s.4-.28.6-.4.41-.23.61-.35c.93-.62,1.9-1.17,2.84-1.79.54-.36,1.11-.69,1.68-1l.55-.37c.17-.11.4-.13.52-.3s.38-.23.47-.45c0,0,0-.07.07-.07.44,0,.71-.4,1.12-.43.18,0,0-.26.22-.22A.36.36,0,0,0,18,7.5c.27-.22.65-.27.92-.51.09-.08.24,0,.29-.08s.37.08.34-.21A1.31,1.31,0,0,1,20,6.54c.2,0,.24-.21.4-.24a5.58,5.58,0,0,0,1-.45c.32-.13.62-.23,1-.33a3.05,3.05,0,0,0,1-.43.64.64,0,0,1,.46-.19c.05,0,.14,0,.15,0,.14-.25.4-.22.6-.25s.62-.28.95-.34a3.05,3.05,0,0,1,.41,0c.18,0,.36,0,.48-.16A.2.2,0,0,1,26.5,4c.34.06.64-.16,1-.11a.2.2,0,0,0,.19-.06.49.49,0,0,1,.66-.08.24.24,0,0,0,.29,0c.09-.09.12,0,.16,0s.18.15.35,0,.37-.34.65-.24a1.64,1.64,0,0,1,.62-.34,2.18,2.18,0,0,1,.74-.3c.06,0,.1,0,.1-.1s.15-.12.23-.12.08.13.09.21,0,.13.07.09.4,0,.5-.1.42,0,.63,0,.16.29.39.23c.05,0,0,.07,0,.1-.22.26-.56.32-.81.53,0,0-.07,0-.08,0a.12.12,0,0,0,0,.1s.05.06.06,0c.26-.18.63,0,.85-.3a5.47,5.47,0,0,1,1.15-.12c.06,0,.1,0,.1.09s0,.14-.12.14-.16,0-.18,0,.08.1.12.15.2.18.35,0,.22-.08.26.07a.59.59,0,0,1,0,.32c0,.06-.09,0-.14,0s-.27.18-.44.12c0,.23-.2.17-.32.24a.64.64,0,0,1-.3.08c-.06,0-.18,0-.17,0a.41.41,0,0,0,.2.26.38.38,0,0,0,.35,0A2.68,2.68,0,0,1,34.44,5,7,7,0,0,0,36,4.14c.15-.1.24-.08.27,0s.19.23.33.13.24,0,.36-.06.06,0,.09,0L37,4.37a.2.2,0,0,1-.08.08c-.22.11-.49.11-.68.33-.06.07-.24,0-.35,0,.13.14.29,0,.44.06s.41-.23.67-.22c.08,0,.16-.12.28-.1s.12-.09.12-.18,0-.13,0-.13,0,.08.06.12a1,1,0,0,0,.13.16s.08,0,.07,0c0-.26.19-.14.31-.16a.18.18,0,0,1,.21.13c0,.15-.11,0-.16.11a1,1,0,0,1-.58.31c-.12,0-.18.24-.39.22s-.27.13-.44.1-.16.14-.25.16a1.79,1.79,0,0,1-.59.16c-.08,0-.19,0-.25,0-.2.25-.51.17-.76.28s-.25,0-.24.17-.09,0-.14,0-.25-.08-.25.07.15,0,.24,0h.27c0,.23-.25,0-.34.16s-.13.24-.26.06c0,.1-.23.07-.25.15-.07.35-.16,0-.23,0s0,0,0,0,0-.11-.07-.09,0,.09,0,.14a.86.86,0,0,0,0,.16h-.11s-.08,0-.09,0,0,.07.09.07h.11c0,.1.07.23.15.3s.24,0,.16.18-.23.06-.34,0-.07-.13-.05-.26,0,0,0,0,0,.06.05,0,0,0,0-.06,0,0-.06,0c-.21.07-.46,0-.54.1a1.74,1.74,0,0,1-.26.37A1.46,1.46,0,0,1,32,8.1c-.13,0-.35,0-.39.11a.33.33,0,0,1-.39.27s0,0,0,.07,0,0,0,0a.74.74,0,0,0,.21,0,4.6,4.6,0,0,0,.82-.26.67.67,0,0,1,.47-.17c.05,0,.12,0,.15,0a1.06,1.06,0,0,1,.85-.32,1.09,1.09,0,0,1,.19,0c.25,0,.53.13.73-.14.07-.09.19,0,.25-.05.23-.15.5-.17.75-.3a4,4,0,0,1,.93-.24c.25-.06.51-.08.76-.12s.56.26.87.29c0,0,.08.06.11.11s.36.23.39.13c.08-.27.37-.19.52-.35a1.91,1.91,0,0,1,.54-.37c.37-.16.64-.51,1.07-.55a1.6,1.6,0,0,1,.68-.33,5.4,5.4,0,0,0,.65-.4,1,1,0,0,1,.65-.25s.11,0,.15,0c.17-.22.46-.21.66-.35a3.9,3.9,0,0,1,.65-.27,1.74,1.74,0,0,1,.9-.31c.16-.36.6-.22.84-.47a.54.54,0,0,1,.45-.19c.07,0,.15,0,.2,0,.19-.24.5-.18.76-.26s.32,0,.42-.16a.14.14,0,0,1,.13-.07c.32.06.61-.17.93-.11a.28.28,0,0,0,.26,0,.51.51,0,0,1,.41-.11c.15,0,.31-.11.46-.17.15.18.3,0,.46,0a.36.36,0,0,0,.38-.13c.11-.15.31-.12.46-.18a1.18,1.18,0,0,1,.59,0c.21,0,.34-.14.55-.12s.61.2.93.12l.62.47c-.05.22.28.15.27.37a.35.35,0,0,0,.28.3c0,.14.14.19.12.34s0,.47.19.62c0,0,0,.14,0,.14-.22,0-.19.28-.34.34s-.28.34-.28.58c0,0,0,.06.05.09s.06-.06,0-.09,0-.28.23-.24.06-.29.28-.22.23,0,.34-.1.24,0,.26-.17.18,0,.29-.05a1.88,1.88,0,0,0,.66-.09c.17-.08.23-.38.43-.28s.3-.11.45-.13.13-.07.18,0,0,.13,0,.19a.22.22,0,0,0-.05.14s0,.06.05.07.12,0,.15,0a.37.37,0,0,0,0-.11c-.06-.35.13-.55.4-.75s.61-.23.72-.6a.18.18,0,0,1,.14,0c.08.06.14.13.15,0s0-.09.1-.09.43.08.49-.22a.62.62,0,0,0,.55-.24c.12-.14.36-.14.39-.37.35,0,.48-.48.87-.37a3.61,3.61,0,0,0,.76-.51c.11-.1.2-.23.34,0,.31-.21.77-.1,1-.57A.45.45,0,0,1,64.1.4c.09,0,.23-.08.37-.07s0-.06,0-.11,0-.22.14-.2.21.1.35,0a.34.34,0,0,1,.43.13c.1.15.23.29.42.08,0,0,.11,0,.16,0s0,.09,0,.13a.4.4,0,0,0,.09.25c.11.09.12-.08.19-.1l0,0c.09,0,.15,0,.19.08a4.35,4.35,0,0,1,.2.61c0,.23.09.11.18.05s.1,0,.16,0-.15.15-.11.28,0,.13,0,.14,0-.08.06-.11.37-.2.56-.31h0s0,.05,0,.08a1,1,0,0,0-.3.47.13.13,0,0,1-.1.1c-.18.06-.3.25-.21.34s.22.26.39.09c.25.1.24-.24.43-.26S68,2,68,2.09s.37.22.09.39-.13.32-.33.36c0,0,0,0-.06.06a.18.18,0,0,0,.09,0c.07,0,.13,0,.2,0s0-.22.11-.15a.24.24,0,0,1,.12.32c0,.07-.08.11-.13.16s0,.11.07.13,0,.13.08.17.09.24,0,.34c-.35.28-.36.35-.2.69,0,.1,0,.1.12,0,.28-.26.68-.31,1-.53a.64.64,0,0,1,.36-.17.32.32,0,0,0,.14,0c.06-.38.35-.3.58-.29a.33.33,0,0,0,.28-.13c.1-.1.21-.2.3-.31A.34.34,0,0,1,71,3.05c.07,0,.18,0,.2,0,.06-.37.44-.25.63-.42a.9.9,0,0,1,.69-.3c.14,0,.17-.21.29-.2s.17-.25.38-.17.21-.13.29-.22.31.15.44-.05c0,0,.18,0,.27,0s.29,0,.29-.18A1.74,1.74,0,0,1,75,1.33a.41.41,0,0,0,.37-.17c.05,0,.1-.14.16-.15a.91.91,0,0,0,.36-.09c.06.19-.06.24-.2.29s-.09,0-.09.05.1,0,.11.06c.13.18.26,0,.35,0s.24-.26.45-.21c0,0,.06-.05,0-.07s-.06-.19,0-.13a.51.51,0,0,0,.7-.11.7.7,0,0,1,.59-.12c.08,0,.19-.05.21.09s-.13.23-.28.22l-.52,0a1,1,0,0,0-.15.29c-.06.32,0,.33-.32.35-.1,0-.19,0-.06.14s0,.24.08.28.23,0,.32,0,.17-.2.31,0,.2,0,.31,0A.76.76,0,0,0,78.34,2a.41.41,0,0,1,.48,0c.12.06.29.08.22.28s.15.22.1.33a2.27,2.27,0,0,0-.21.67c-.36.13-.21.43-.21.66s-.17.57-.12.88.06.17.17.06.07.07,0,.12-.08.15-.13.16c-.35,0-.34.31-.4.52s0,.27-.19.3,0,.13,0,.2.06.11.06.07c.05-.29.33-.21.49-.28a1.93,1.93,0,0,1,.64,0,.28.28,0,0,1,.27.12c.06.08.12.12.2,0l.07-.08a.11.11,0,0,1,.14,0c.09,0,.08.1.07.17a1.28,1.28,0,0,1-.22.47c-.16.08-.14.35-.39.35-.06,0-.05.1,0,.14s.07,0,.11,0,.22-.17.37-.16.1-.23.16,0,0,.18-.06.23-.08,0-.11,0c-.43.13-.45.15-.48.6,0,0,0,.17-.08.12s-.14-.13-.21,0,.09.12.14.18.15.13.16.26a.24.24,0,0,0,.41.13c.06-.05.12-.11.18-.06s.07.15,0,.21,0,.11,0,.15-.21.16,0,.17c0,0,.12,0,.15,0s.31.3.45.46.09.38.22.47a4.32,4.32,0,0,1,.39.34c.09.09.11.19-.06.22s0,.3-.17.32-.25,0-.33.13a1,1,0,0,1-.15.27c-.13.14-.17.36-.41.42-.06,0,.06.31-.2.26s-.11.32-.32.24c-.11.16-.27.07-.4.09s-.4.29-.39.35-.08.19-.23.2-.19-.17-.18-.07-.25.11-.25.28c0,.34-.22.44-.53.44a.45.45,0,0,0-.47.29s-.07.11-.11.11c-.32,0-.46.24-.64.43a.4.4,0,0,1-.38.14c-.11,0-.18,0-.14.15s-.16.19-.06.26a.3.3,0,0,0,.35,0,2.43,2.43,0,0,1,1.12-.56c.23-.07.15-.28.27-.37s.21.25.36.15a.58.58,0,0,1,.36-.05.45.45,0,0,0,.42-.17.11.11,0,0,1,.18,0c.06.05,0,.07-.06.11a.14.14,0,0,0,0,.18.85.85,0,0,0,.37.28c.06,0,.16.08,0,.19a1.5,1.5,0,0,0-.23.33c0,.07,0,.15,0,.17s.15,0,.15-.09a.2.2,0,0,1,.14-.2.22.22,0,0,0,.17-.35c-.21-.25.12-.45,0-.68,0,0,0-.06,0-.08s.26-.22.4-.32a1,1,0,0,0,.28-.28c.1-.08,0,0-.06.05s-.15,0-.13.11.14,0,.21,0,.17-.1.22-.19a.12.12,0,0,0,0-.1c-.06,0,0,0-.21.13s-.48,0-.53.3-.31,0-.38.18l-.12-.11c-.06-.07-.06-.16,0-.18s.32-.26.52-.31.32-.06.37-.26a.2.2,0,0,1,.23-.11c.12,0,.14,0,.14-.15s.12-.28.32-.17c0,0,.19,0,.19,0,0-.27.15-.31.34-.33,0-.17.11-.29.12-.44s0-.13.12-.18a2.28,2.28,0,0,0,.68-.44c.13-.13.27-.06.39-.13s.08-.39.35-.29.3-.1.44-.1.18.17.2-.08.13-.27.37-.26a.92.92,0,0,0,.48,0l.14-.05a.19.19,0,0,1,.15,0c.09.06,0,.07,0,.11l0,0c-.07.1-.26.15-.2.29s.25.08.37.07.33,0,.37-.2.16-.09.23-.17.1,0,.1.06,0,.14-.08.22-.45.31-.4.65c0,.18-.15.23-.26.31s-.12.09,0,.22l0,.07-.1,0c-.15,0-.3-.14-.45,0l-.08,0s0,.05.07.06.18,0,.25.05.13.1,0,.2a7.19,7.19,0,0,0-.57.64v0l-.08,0s0,.05,0,.06,0,0,.06-.07.16-.06.2,0a.12.12,0,0,1,0,.19,1.34,1.34,0,0,0-.38.37c-.11.11-.34,0-.44.23s0,.05-.07,0,0-.07,0-.1.19-.13,0-.18S83,12.82,83,13s-.19.23,0,.35-.13.2,0,.3,0,.25-.07.29c-.4.17-.66.55-1.07.69l-.08,0c0,.4-.48.22-.62.49-.05.1-.26,0-.27-.17V14.8c0-.05,0-.13,0-.14s0,.07-.06.12,0,.06,0,.09-.28.05-.28.26.13.27.19.41.22.19.13.24,0,.41-.25.4c-.05,0-.12.08-.15.14a.17.17,0,0,0,0,.14.14.14,0,0,0,.14,0c.11-.08.17-.26.37-.1s.21.17.19.18,0,.33-.15.36-.15.3-.36.29c0,0-.12.07-.18,0s.08-.09.06-.15a.32.32,0,0,0-.12-.11c-.08-.07-.19-.08-.19,0a.79.79,0,0,1-.26.65c-.14.14,0,.31-.07.46-.11,0-.12.07-.11.14s0,.2-.17.2-.06.09,0,.13.09,0,.14,0a.46.46,0,0,1,.2,0s.08,0,.08.05,0,.14,0,.14-.19.15-.27.12c-.26-.07-.28.17-.31.27-.08.28,0,.62-.43.73a.09.09,0,0,0,0,.09.91.91,0,0,1-.31.8.17.17,0,0,0,0,.14c.06.09.08,0,.11,0s.21,0,.31,0a.32.32,0,0,0,.24-.08,1.12,1.12,0,0,1,.71-.25.85.85,0,0,0,.35-.05,1.76,1.76,0,0,1,1.4.18,2,2,0,0,1,.91.64c.11.17.32.21.38.37a1.17,1.17,0,0,0,.32.52,2.17,2.17,0,0,1,.32.47,4,4,0,0,0,.29.47.17.17,0,0,1,0,.14c0,.39.19.75.12,1.14a1.07,1.07,0,0,1-.28.58.26.26,0,0,0,0,.09.86.86,0,0,1,0,.16c0,.14-.78,1-.89,1.15a1.56,1.56,0,0,1-.4.41s-.07.14-.17.13-.12,0-.15,0a1.56,1.56,0,0,1-.66.59c-.24.14-.39.45-.71.46,0,.25-.45.22-.38.54a.64.64,0,0,0-.54.54c0,.1,0,.19-.14.23s-.16.2-.28.27c.11.08.24,0,.36,0a.63.63,0,0,0,.5-.11c.17-.16.33,0,.5,0s.14-.13.14-.23.13,0,.16,0,.15.08.23,0,.18-.19.26,0v0a.3.3,0,0,0-.08,0s0,.05,0,.06,0,0,.06-.07.12,0,.16.08.09.21-.09.21-.18.1-.18.23c-.28,0-.58-.09-.85.1,0,0-.1,0-.12.08a.17.17,0,0,0,0,.1s.05.05.07,0,.16.08.24,0l-.21.33c-.09-.05-.11.16-.26,0s-.35,0-.53.08l-.08.05.09.05a1.92,1.92,0,0,0,.82.11,6.72,6.72,0,0,1,1.1.11s0,.06,0,.09,0,.12-.06.12H80.17c-.06,0-.14,0-.14,0s.1.06.17.06c.32,0,.65,0,1,0a.25.25,0,0,1,.3.2c0,.06.1.09.16.13s.06,0,.09,0,0,0,0-.07-.1-.17,0-.22.2-.06.24,0,0,.18.19.19,0,.08,0,.09-.25,0-.24.05c0,.39-.24.26-.42.27h-.27c-.12,0-.27-.09-.32.16s-.26,0-.4.05-.1,0-.1.07,0,0,.08,0a.89.89,0,0,0,.39.12c.4,0,.79,0,1.19,0s.46-.16.72-.12.06-.16.09-.25.23-.15,0-.18a.09.09,0,0,1-.06-.16c0-.05.08-.19.18-.12a.31.31,0,0,0,.24.07c.11,0,.13.09.1.14-.14.25,0,.49,0,.75v0a.32.32,0,0,0-.09,0s0,0,0,.06,0,0,.07-.07a.82.82,0,0,0,.49.09c.07,0,.15,0,.16.09s-.09.12-.18.12h-.16c-.07,0-.18,0-.19,0s.1.05.17.06.42-.07.61.09.07,0,.07-.09.07-.12.07-.08c0,.31.34.1.44.23s.33,0,.32.1-.19.06-.29.07a.21.21,0,0,0-.13.09c-.09.15-.23.14-.37.13H84c-.13,0-.17.1-.25.17s.11.18.2.15.24.13.39.12.07.08.06.13a.09.09,0,0,1-.11.08,1.62,1.62,0,0,1-.22,0c-.07,0-.09,0-.1.09s0,.13.06.13c.22,0,.35.43.63.13,0,0,.12.07.15.12s-.07.13-.11.14q-.34.09-.69.15h-.27c-.07,0-.09,0-.1.1a.1.1,0,0,0,.08.12h.16c.14,0,.08.13.09.21s-.06.13-.14.11c-.29-.07-.54.12-.82.11-.13,0-.13.08-.13.17s0,.17.15.16.25,0,.33-.11a.29.29,0,0,0,.28.11V36c0,.36,0,.36-.35.38h-.11s0,0-.08.06l.09,0a2.41,2.41,0,0,1,.38,0c.12,0,.07.15.07.23s-.07.08-.13,0-.2,0-.3,0-.22,0-.22.24,0,.2.17.19.58,0,.87,0h.27c.1,0,.13.11.2.16s-.12.15-.19.16c-.3,0-.61,0-.92,0h-.7c-.1,0-.13,0-.08.1s.07.16-.09.25-.29,0-.38.13-.24,0-.35.07a.15.15,0,0,0-.09,0,.09.09,0,0,0,.12.06c.18,0,.19.07.2.22s0,.32-.22.39-.11,0-.11-.08,0-.14,0-.2.06-.11,0-.1-.23-.15-.34-.21a1,1,0,0,0-.58,0c-.09,0-.15.16-.2.25s.07.05.12.06.27-.09.32.16.26,0,.39.05.12,0,.12.07-.09,0-.14,0-.07.06-.06.12,0,.1.1.09.24,0,.35-.07a.85.85,0,0,1,.64-.15h1.41s.08,0,.08,0a.16.16,0,0,1,0,.14c0,.07-.1.15-.21.14A4.91,4.91,0,0,1,82.4,39c-.13,0-.15.13-.27.08s-.07.06-.06.12.05.11.11.08.23.07.33.12.23.17.14.34-.05.24-.23.2-.17-.06-.12-.12c.2-.23-.18-.22-.16-.39s-.19,0-.29,0-.21,0-.22.14-.14.08-.22.07-.38.11-.47-.19c0-.1-.23,0-.27.14a.48.48,0,0,1-.43.38,1.81,1.81,0,0,0-.9.32l-.08.05s0,.06.08.06H80c.11,0,.27-.05.25.17,0,0,.06.05.07,0,0-.32.3-.13.45-.19a1,1,0,0,0,.39-.23A.61.61,0,0,1,82,40c.11.05.34-.08.36.2,0,.11.22,0,.34,0s.13,0,.14,0-.07.1-.1.15-.22.15-.37.15a1.08,1.08,0,0,0-.61.1c-.11.07-.06.14-.24.22h-.31c-.07,0-.14,0-.17.06a.34.34,0,0,0,.14.05h.42s.06,0,.08-.06,0-.06,0,0h-.11c.36,0,.58-.08.77.1s.16-.11.27-.1h.76s.06,0,.09,0-.05.06-.08.06-.21,0-.28.09a.28.28,0,0,1-.33.12c-.27-.06-.49.16-.77.13-.08,0-.35.09-.27.35s0,.2-.18.18-.18.16-.33.11-.1.06-.15.09c-.23.18.1.4-.06.61s.19.12.28.21.16,0,.25.06.1,0,.08.11,0,.08,0,.09l-.55.23c-.23.1-.45.21-.64-.08,0-.06-.26-.06-.27,0s-.09.17-.21.16-.54,0-.81,0a2.36,2.36,0,0,0-1.14.26.47.47,0,0,1-.3.06,1.36,1.36,0,0,0-.66.12,1.7,1.7,0,0,1-1,.22.21.21,0,0,0-.23.17c0,.09-.09.27.14.26.08,0,0,.12.08.17s.12.07,0,.17-.47,0-.63.2a2.85,2.85,0,0,0-1,.26c-.57.15-1.12.42-1.7.58s-1,.4-1.45.56-.84.41-1.27.58-.8.43-1.21.62a15.47,15.47,0,0,0-1.33.83c-.11.05-.17.18-.32.15s-.09.07-.12.13-.12.22-.28.19a.34.34,0,0,0-.36.16.63.63,0,0,1-.36.19.94.94,0,0,0-.4.22.7.7,0,0,1-.46.2c-.11,0-.11.25-.33.22s-.26.27-.4.29-.3.21-.49.13c-.06.13-.08.26-.29.23s-.19.12-.33.1,0,.26-.22.22a.53.53,0,0,0-.33,0,3,3,0,0,0-.34.2,4.24,4.24,0,0,1-.89.48c-.11,0-.31.07-.31.28a.42.42,0,0,0-.37.15c-.12.14-.22.31-.47.31s-.1.31-.29.3,0,.29-.28.23-.2.21-.31.28a2.52,2.52,0,0,1-.33.24A11,11,0,0,1,58,54c-.24.11-.43.32-.73.31-.08.32-.34.21-.55.22s-.26.17-.44.11a.94.94,0,0,1-.66.23c-.14,0-.33,0-.38.26a.23.23,0,0,1-.3.16.83.83,0,0,1,.07-.38c0-.07,0,0-.07,0s0,.06.05,0,.13,0,.15-.06,0,0-.13,0-.16.21-.2.22c-.25,0-.2.21-.2.4v0l-.08,0s0,.05,0,.06,0,0,.06-.07a.12.12,0,0,0,.11-.11c0-.18.12-.12.22-.13s0,.24-.07.34a9.15,9.15,0,0,1-.91.85,1.24,1.24,0,0,1,0-.32c0-.09,0-.05,0,0s0,.09,0,.1a.08.08,0,0,0,.11-.07c0-.05,0-.09-.07,0s-.13.24-.15.32h-.38a.17.17,0,0,0-.18.08c-.11.21-.39.32-.4.57s-.18.3-.28.43-.24,0-.3-.08-.27,0-.28-.07-.36-.21-.25-.5-.17-.42-.1-.66c0,0,0-.08,0-.08-.25.11-.26-.3-.49-.23,0,0-.13,0-.09-.07.24-.21-.06-.38,0-.57s.06-.27,0-.3-.17.14-.26.21a.42.42,0,0,0-.16.25c0,.09-.13,0-.2,0s-.05-.27.18-.36.24-.37.42-.51,0-.11-.07-.1c-.24.05-.2-.12-.2-.26s0-.05.07-.08a.69.69,0,0,0,0-.51s-.07,0-.09,0-.37,0-.5.14-.06.1-.13.08a1.85,1.85,0,0,1,0-.38s0,0,0,0,0,.06,0,0,0,0,.05-.06,0,0-.07,0a.43.43,0,0,1-.12.09c-.07.07-.15.12-.22,0a.2.2,0,0,1,.1-.28H50c.1,0,.1-.07.1-.15s0-.18-.06-.17-.26-.09-.38-.11-.3.08-.25.33-.13.19-.07.31-.22-.05-.21.09c0,.46-.18.9-.12,1.36,0,.14,0,.2.18.18s.13,0,.14.05-.06.08-.1.11-.16.26-.26,0-.13-.25-.28,0a.85.85,0,0,1-.48.27c-.11,0,0,.25-.22.23s-.43-.08-.47-.44-.17-.21-.32-.22-.26.24-.4,0l0,0c-.05.31-.29.3-.52.3-.07.19-.43,0-.41.3-.19,0-.37,0-.42.29,0,.07-.19.15-.3.15s-.23,0-.25.19a.21.21,0,0,1-.15.14,2.38,2.38,0,0,1-.38,0c-.16,0,0,.22-.22.23a.82.82,0,0,0-.52.33.17.17,0,0,1-.16.09c-.13,0-.27-.16-.4,0-.21-.09-.17.19-.28.2a.87.87,0,0,0-.33.12s-.14,0-.13.06c.08.31-.25.29-.36.44s-.25.16-.3-.1-.1-.07-.1,0-.1.11-.19.12c-.25,0-.06.09,0,.17s0,.11,0,.14a.25.25,0,0,1-.15,0,1.06,1.06,0,0,1-.15-.15c-.08-.08-.07,0-.09.05s-.32.18-.44,0-.17-.22-.47-.13h-.16c-.16,0-.08,0,0-.14s0-.26-.21-.21-.3.08-.31-.18-.27-.27-.23-.51c0-.06-.07,0-.1,0s-.13,0-.2,0,0-.09.08-.13a.23.23,0,0,0,0-.25c-.1-.11-.12.06-.18.09s-.16.26-.29.16-.05-.24,0-.37,0-.16.15-.15.16,0,.18-.07a.81.81,0,0,0,0-.27c0-.08-.24-.18-.34-.13s-.34,0-.35.22c0,.06-.18.06-.24,0s-.06-.19-.22-.23,0-.09.08-.13.21-.18.22-.34.22,0,.16-.11-.16,0-.24,0,0,0,0,0a.21.21,0,0,1-.29,0c-.08-.08.07-.23.08-.24.22-.16,0-.3,0-.41-.1-.27-.13-.33.09-.39s.17-.25.23-.36-.15-.3-.11-.49,0,0-.08,0-.27.33-.52.3c0,.32-.32.17-.47.3s-.25.32-.49.23c-.12.34-.43.35-.7.37s-.36.27-.53.4c-.36.26-.8.36-1.16.62-.17.13-.37.34-.65.24,0,.15-.32,0-.28.27,0,0-.11.17-.24.16s-.29-.06-.31.17-.16,0-.24,0a3.37,3.37,0,0,0-.83.1c-.15.05-.05.21-.17.23s-.18,0-.25,0-.15.09-.22,0-.1,0-.1,0-.1.26-.22.25-.28.18-.44.12l-.09,0s0-.06.05-.06.1,0,.14,0,.16-.13.11-.22a.16.16,0,0,0-.23-.05c-.14.16-.4,0-.5.24s-.16.08-.24.07c-.23,0-.44,0-.54.27,0,.08-.12.05-.18.06s-.28,0-.41.09-.18-.05-.25-.12a.11.11,0,0,1,.08-.19h.43c.12,0,.19-.13.34-.11s.1-.09.08-.18a.27.27,0,0,1,.16-.36c.26-.09.28-.1.2-.35s.08-.18.09-.28a.36.36,0,0,0,0-.1s-.05,0-.08,0-.27.35-.54.28c-.05,0-.1,0-.11-.07s0-.13.05-.14c.25-.07.26-.43.55-.46.08,0,0-.13.08-.25s0,0,0,0,0,.06,0,0a.15.15,0,0,0,0-.06s0,0-.06,0a.62.62,0,0,1-.31,0c-.14,0-.27,0-.3.19,0,0-.09,0-.14,0s-.05-.09,0-.14.23-.14,0-.18a.1.1,0,0,1,0-.19c.3-.11.45-.42.78-.48.16,0,.16-.25.33-.35s.29-.31.46-.44c0,0,0-.09,0-.14a.13.13,0,0,0-.09,0c-.11,0-.29.11-.3.17,0,.23-.16.15-.27.15a.61.61,0,0,1-.36,0c-.15-.11.11-.19.08-.32s0-.13,0-.15-.07.06-.09.1-.2.15-.22.29,0,.14-.11,0-.13,0-.06-.15.2-.28-.1-.34c-.1,0,0-.09.07-.1s.11-.08.09-.15-.11-.06-.18-.07a.25.25,0,0,0-.18.1c-.05,0-.12.13-.16.12-.26-.07-.47.14-.72.11-.08,0-.21.08-.26-.07.16,0,.23-.24.27-.24A1.88,1.88,0,0,0,28.19,53c.09-.05.22,0,.33,0s.27-.18.13-.36-.09-.08-.11-.12a.11.11,0,0,1,.07-.17c.11,0,.29.1.39-.16,0,0,0,0,0,0s0,.07,0,0a.15.15,0,0,0,0-.06s0,0-.06,0c-.24,0-.31-.05-.23-.13S29,52,28.94,52s-.13,0-.2-.07-.27.18-.44.11c-.22.27-.6.23-.83.47a.36.36,0,0,1-.24.07c-.12,0-.24,0-.35.07s-.28,0-.42-.07-.31.12-.32-.15c0,0-.07-.09-.09,0s0,.17-.09.16-.14.13-.21.09-.06-.18,0-.25.11-.1,0-.2,0-.13.08-.18a1,1,0,0,0,.47-.53c0-.09,0,0,0,0s0,.09,0,.1.09,0,.1-.07S26.34,51.45,26.29,51.51ZM77.41,6.09c.17,0,.1-.14.26-.31a.11.11,0,0,0-.15,0s0,.06,0,0,.13,0,.15-.06,0,0-.2.06-.09.14-.11.27v0l-.08,0s0,0,0,.06S77.39,6.15,77.41,6.09ZM54.33,55.93s.05-.1,0-.09a.1.1,0,0,0-.06.07.74.74,0,0,0,0,.14c.05,0,.07-.06.14-.42a.09.09,0,0,0-.07.11s0,.09,0,.1a.08.08,0,0,0,.1-.08S54.41,55.67,54.33,55.93ZM83.74,12.61a.11.11,0,0,0-.15,0s0,.06,0,0,.13,0,.15-.06-.05,0-.2.11V12.7l-.08,0s0,0,0,.07ZM29.4,10.1c.08,0,.2.05.21-.11s.3,0,.55-.32c-.11,0-.19,0-.22.05s.07,0,.1,0,.17.05.21-.06-.08,0-.31.06-.31,0-.33.22c-.08,0-.2-.05-.21.16,0-.05,0-.06,0-.05a.58.58,0,0,0-.14,0s0,0,0,.07S29.35,10.22,29.4,10.1Zm-14,15a.09.09,0,0,0-.07.11s0,.1,0,.1a.07.07,0,0,0,.1-.07s0-.09-.1.12v-.05l-.09,0s0,.05,0,.06S15.29,25.34,15.38,25.06ZM30.91,4.9c-.1,0-.19,0-.21.06s.07,0,.1,0,.17,0,.21-.06-.08,0-.31.16c0,0,.05-.11-.05-.09s-.06,0-.06.07,0,.09,0,.13S30.71,5.16,30.91,4.9ZM15.63,56.27a.25.25,0,0,0-.21.22c-.11,0-.28-.1-.33.2.05-.11-.08-.12-.13-.16s-.08,0-.08.09-.05.18.09.19.13,0,.12-.21.27.1.33-.11c.17,0,.24,0,.29-.43a.1.1,0,0,0-.08.11s0,.09,0,.1a.08.08,0,0,0,.11-.07C15.74,56.15,15.72,56.11,15.63,56.27Zm13.87-.43c-.1,0-.19,0-.21.06s.07.05.1,0,.17.05.21-.06-.08,0-.31.16c0,0,.05-.11-.05-.09s-.06,0-.06.07a.78.78,0,0,0,.05.14C29.28,56.14,29.3,56.1,29.5,55.84ZM16.28,56c.11,0,.28.1.41-.32-.07,0-.09.06-.08.11s0,.09,0,.1a.08.08,0,0,0,.1-.08s0-.09-.1.08-.28-.1-.33.2c0,0,0-.11-.05-.09s-.05,0-.05.07a.37.37,0,0,0,0,.14C16.27,56.14,16.29,56.1,16.28,56ZM32.11,4.46c-.11,0-.19,0-.22.06s.07.05.1.05.17,0,.21-.06-.08,0-.31.11v0l-.08,0s0,.05,0,.07ZM11.51,47.59s.06-.1,0-.1-.14,0-.16.08a.1.1,0,0,0,.09.14c.08,0,.13,0,.23-.33,0,0-.08,0-.1.07s0,0,0,0,.14,0,.16-.07S11.67,47.4,11.51,47.59Zm-5-13.65s0-.11,0-.1-.15,0-.17.07,0,.14.09.14.13,0,.19-.31a.15.15,0,0,0-.06,0s0,.07,0,0,0,0,0-.06S6.6,33.75,6.53,33.94ZM32.76,4.25h.52c.07,0,.13,0,.31-.32,0,0-.07,0-.15,0s0,.09,0,.14,0,.08.05,0,.28-.09.42-.11a.13.13,0,0,0,0-.07l0,0c-.07,0-.14,0-.49.21h-.52a1,1,0,0,0-.39.11h-.11c-.06,0-.13,0-.17.06a1,1,0,0,0,.14,0,1.71,1.71,0,0,0,.32,0,.12.12,0,0,0,.07,0s0-.06,0-.06S32.57,4.25,32.76,4.25ZM77.85,34.82c.08,0,.17,0,.2-.06s-.06-.07-.11,0-.16-.08-.2,0,.08,0,0-.21c0-.06,0-.14-.07-.16s-.25,0-.25.19.13.11.21.12S77.72,34.61,77.85,34.82ZM82,14.05c0-.05,0-.05-.06-.05s-.39.23-.38.37a.13.13,0,0,0,.07.05c.09-.12.29-.1.36-.26s0-.07.07-.26c0,0,0,0-.06,0S82,14,82,14a.15.15,0,0,0,0-.06S82,13.91,82,14.05Zm-7.6,30.73c-.12,0-.19.06-.28.11l-.62.31a1.23,1.23,0,0,1-.2,0c-.1,0-.08.09-.09.16s.08,0,.11,0,.18,0,.24-.07a.31.31,0,0,1,.37-.14c.19.06.3-.14.49-.12s.09-.11.1-.19,0-.13-1.52.63c.1,0,.19,0,.21-.06s-.07,0-.1,0-.17,0-.2.06A6.47,6.47,0,0,0,74.37,44.78ZM6.2,32.86c.17,0,.24.16.22.38,0-.05,0-.06,0-.06a.26.26,0,0,0-.27.21.08.08,0,0,0,.06.12c.12,0,.15,0,.16-.15s.06-.08.1-.17c.25,0,.22-.33.39-.46s.05-.2-.1-.19-.16-.07-.08-.19,0-.12-.08-.18,0-.22.2-.28l.09,0s0-.07,0-.07H6.3c-.1,0-.08.08-.1.14s.2.23.1.33-.06.41-.25.6l-.25,0s0,.06,0,.09a.1.1,0,0,0,0,.08.71.71,0,0,0,.39-.15C6.19,32.79,6.09,32.9,6.2,32.86ZM79.8,10.62a1.55,1.55,0,0,0,0-.22s0-.05-.05-.08c0,.21-.34,0-.37.2a.38.38,0,0,1-.2.23c-.16.12-.17.17-.13.4s0,.24-.22.25-.35-.08-.4,0c-.11.28-.37.18-.54.28s-.13,0-.15.16a.64.64,0,0,1-.28.41.7.7,0,0,0-.14.16c-.14.18-.18.16-.46.19a.55.55,0,0,0-.42.16,1.3,1.3,0,0,1-.59.44.35.35,0,0,0-.24.52c0,.06.1.18.23,0a5.21,5.21,0,0,1,.72-.6,2.94,2.94,0,0,0,.41-.31.16.16,0,0,1,.11-.06.38.38,0,0,0,.35-.17c.16-.19.34-.36.52-.54,0,0,0,0,.12,0a.74.74,0,0,0,.74-.28,3.67,3.67,0,0,1,.51-.44C79.54,11.2,79.89,11,79.8,10.62Zm-75,20c0,.09,0,.18.06.27a.28.28,0,0,0,.33.1c.07,0,.21-.09.08-.27s0-.38.18-.47a.17.17,0,0,0,.12-.19c0-.07,0-.14-.1-.15a.11.11,0,0,0-.11.08l-.06.14a.35.35,0,0,1,0-.08c0-.08,0-.2-.07-.23A.39.39,0,0,0,5,30C4.94,30.24,4.85,30.44,4.78,30.64ZM79.73,15s0-.05.08-.06.25-.19.42-.15.11,0,.11-.08,0-.31.23-.36.11-.29.29-.32.13,0,.12-.06-.12,0-.19,0-.16.08-.21.15a.79.79,0,0,1-.38.25c-.15.07-.35,0-.3.3,0,.07-.11.06-.18.06s-.14,0-.14.11S79.69,14.89,79.73,15ZM5.63,35.47a.78.78,0,0,0,.62-.33.41.41,0,0,0-.07-.4.2.2,0,0,0-.28,0c-.14.17-.4.26-.35.55C5.56,35.35,5.32,35.45,5.63,35.47ZM79.9,42.62c-.13,0-.36-.09-.51,0a.6.6,0,0,1-.48.18s0,0-.08,0,0,0,.07.06.11,0,.16,0,.36-.18.48-.07.18-.1.31,0a.85.85,0,0,0,.42,0c.06,0,.15-.09.15-.14s-.08-.07-.14-.07Zm-3.15-1.7s-.06,0-.09,0a1.48,1.48,0,0,0-.57.19s-.07.08-.08.12,0,.13.06.12c.24-.08.51-.11.67-.35C76.74,41,76.75,40.94,76.75,40.92Zm-2.48.4a.34.34,0,0,0-.32.35s0,.11.1.08a1.07,1.07,0,0,0,.42-.26.11.11,0,0,0,0-.17S74.32,41.32,74.27,41.32Zm7.59-27.75c.1,0,.12-.07.1-.14s-.26-.1-.35-.11-.16.28-.37.28,0,.07.05.07.19,0,.25-.05S81.73,13.45,81.86,13.57Zm-5,21.25c.07,0,.07-.14.18-.09s.14,0,.13-.11,0-.12-.11-.14a.31.31,0,0,0-.31.15.22.22,0,0,0,0,.14S76.84,34.8,76.89,34.82ZM14.62,26a1,1,0,0,0,0-.1.27.27,0,0,1,.2-.21c.05,0,.13,0,.1-.06s-.11-.06-.18-.09-.08-.12-.1,0-.2.27-.13.44S14.59,26,14.62,26Zm39.19,29.6s0,0,0,0,.14,0,.13,0c0-.17.17-.21.21-.34s0,0,0,0h-.11c-.19,0-.09.36-.34.34,0,0,0,0,0,.07ZM5,36c-.08,0,0,.12-.06.18s.2.09.24.21.06.05.07,0,0-.19,0-.24S5,36.11,5,36Zm73.9,5.31c-.06,0-.13,0-.14.08s0,.09,0,.09.21.17.36.15a0,0,0,0,0,0,0c0-.08-.1-.11-.1-.21S78.94,41.31,78.86,41.32Zm1.21-32c-.06.06-.14.11-.16.17s0,.18,0,.25a.18.18,0,0,0,.1,0c.11-.07.12-.2.15-.3S80.12,9.39,80.07,9.34ZM74.48,43.2l0,0a1.9,1.9,0,0,1-.57.14s0,.07,0,.1,0,.05,0,.08c.11-.22.37,0,.5-.18Zm6.82-1.67c-.11,0-.26-.05-.36.1s0,0,0,.08.07,0,.08,0a.71.71,0,0,1,.49-.11s0,0,0-.07,0,0,0,0Zm-49.54.76h.15a.09.09,0,0,0,.09-.1c0-.11-.09-.15-.15-.2s-.07,0-.07.09-.06.1-.13.1a.24.24,0,0,0-.08.06l.08,0ZM53.13,7c0-.15,0-.3-.16-.11s-.14,0-.21,0,0,0,0,.07l0,0c.09,0,.18,0,.25,0S53.13,7,53.13,7ZM82.18,35.63c0-.1,0-.18-.13-.17s-.08.09-.09.16,0,.18.14.17S82.19,35.7,82.18,35.63ZM79.37,15.34s0-.17-.07-.11-.25,0-.24.13.16.07.24.13S79.35,15.41,79.37,15.34ZM5.26,29.7c.09,0,.15-.12.26-.11s.05-.06,0-.07a.24.24,0,0,0-.28,0s0,.06,0,.1S5.25,29.68,5.26,29.7ZM74.38,14.49s0,.13,0,.14.07-.09.07-.14,0-.13,0-.14S74.39,14.44,74.38,14.49ZM58,4.09C58,4,58,4,58,4s-.07.08-.07.13,0,.13,0,.14S58,4.14,58,4.09ZM19,12.7c.06,0,.14,0,.15,0s-.09-.06-.14-.07-.13,0-.14,0S19,12.69,19,12.7ZM15.31,42.45c0-.05,0-.15-.07-.14s0,.09,0,.14,0,.15.07.14S15.3,42.51,15.31,42.45ZM81,39c.1,0,.17,0,.22-.06l-.14,0c-.07,0-.14,0-.19,0Zm.52-3.36-.09,0,.19.14a.32.32,0,0,0,0-.09C81.65,35.68,81.58,35.68,81.51,35.68Zm1.27-2.28s-.15,0-.14.07.09,0,.14,0,.15,0,.14-.07S82.83,33.41,82.78,33.4Zm-.33-.65s-.15,0-.14.07.09,0,.14,0,.15,0,.14-.07S82.5,32.76,82.45,32.75ZM29.4,6.9s-.06-.05-.09-.05-.13,0-.13.1,0,.12.07.09S29.35,7,29.4,6.9ZM12.61,56.17c-.11,0-.18,0-.23,0l.14.05a.18.18,0,0,0,.19-.05ZM82.74,12.7c.05,0,.14,0,.18,0s0-.07-.09-.07-.16,0-.19,0S82.68,12.71,82.74,12.7Zm-5.21-2.6c.06,0,.15,0,.19,0s0-.08-.09-.07-.16,0-.2,0S77.47,10.1,77.53,10.1ZM14.07,26.56c.07,0,0-.1,0-.14s0-.05-.07,0,0,.09,0,.14S14.05,26.55,14.07,26.56ZM81.32,12.13a.13.13,0,0,0,.05.14s0-.06,0-.08a.78.78,0,0,0,0-.14Zm-.65.57s.08,0,.08,0,0-.08-.09-.07-.08,0-.08,0S80.61,12.71,80.67,12.7Zm3.66-2.32s0-.06,0-.06-.11,0-.14,0,0,.07,0,.07S84.3,10.45,84.33,10.38ZM17,55.56c0-.08-.09,0-.14,0s0,0,0,.06.09,0,.14,0S17,55.58,17,55.56Zm35.67-.14.06.09a.52.52,0,0,0,.06-.13s0-.06-.06-.08ZM34.77,55s-.06.07-.06.09a.78.78,0,0,0,0,.14s.05-.06.05-.08A.42.42,0,0,0,34.77,55Zm.68-.38c0-.06-.09,0-.14,0s-.05.05,0,.07.09,0,.14,0S35.44,54.6,35.45,54.58Zm16.71-.37s0-.08,0-.08-.08,0-.07.09,0,.08,0,.08S52.16,54.26,52.16,54.21ZM48.85,53c.07,0,.07-.06,0-.08h-.14s0,.06,0,.07A.26.26,0,0,0,48.85,53ZM80.62,16.8c.07,0,0-.09,0-.14s0,0-.07,0,0,.09,0,.14S80.6,16.79,80.62,16.8Zm-31.49,36-.06-.09a.29.29,0,0,0,0,.13s0,.06,0,.08ZM29.62,6.85s.08,0,.08,0,0-.08-.09-.07-.08,0-.08,0S29.56,6.85,29.62,6.85Zm-24,26.27c0-.07-.09,0-.14,0s0,.05,0,.07.09,0,.14,0S5.63,33.14,5.64,33.12ZM30.14,6.57c0-.08-.09,0-.14,0s-.05,0,0,.06.09,0,.14,0S30.13,6.58,30.14,6.57ZM49,3.34l0-.07c-.05,0-.11,0-.14,0s0,.07,0,.07S49,3.4,49,3.34Zm-23.33,47c.06,0,0-.1,0-.15s-.05,0-.07,0,0,.1,0,.14S25.65,50.28,25.67,50.3ZM35.78,5s0-.06-.05-.06-.11,0-.13,0,0,.06,0,.06S35.74,5,35.78,5Zm19.15.57c.08,0,0-.09,0-.14s0,0-.06,0,0,.09,0,.14S54.91,5.52,54.93,5.53Zm-24.52.89a.14.14,0,0,0-.15,0s.06,0,.09,0l.13,0ZM6.64,34.59s0-.08,0-.08-.08,0-.07.09,0,.08,0,.08S6.64,34.65,6.64,34.59Zm69,6.73.09,0c0-.07,0-.08-.09-.07s-.09,0-.09,0S75.63,41.32,75.68,41.32Zm5-.26s0-.07,0-.07-.11,0-.14,0,0,.06,0,.06S80.61,41.12,80.65,41.06ZM29.94,5.55s.08,0,.09,0,0-.08-.09-.07-.08,0-.09,0S29.89,5.55,29.94,5.55ZM77.29,41s0-.06,0-.06-.11,0-.14,0,0,.07,0,.07S77.25,41,77.29,41Zm-75.86-6c0-.05,0-.1-.07-.09a.19.19,0,0,0,0,.09s0,.1.07.09A.46.46,0,0,0,1.43,34.92ZM29.7,5.59c0-.07-.09,0-.14,0s0,0,0,.07.09,0,.13,0S29.69,5.61,29.7,5.59Zm52,31.89s0-.06,0-.06-.11,0-.14,0,0,.07,0,.07S81.7,37.54,81.73,37.48ZM74.18,15.67l0,.07s0,0,0,0l0-.07Zm7.12,20,0,0a.21.21,0,0,0,0,.07s0,0,0,0ZM53.68,5.93l0,0-.07,0,0,0S53.65,5.94,53.68,5.93ZM5.21,35.75l0-.07,0,0s0,0,0,.08Zm77.17,1.62,0-.07s0,0,0,0l0,.07ZM5.3,35.48l-.07,0,0,0,.08,0Zm1.27,0,.07,0,0,0-.07,0ZM74.43,15.52l0,0s0,0,0,.08l0,0Zm2,25.05-.07,0,0,0s0,0,.08,0Zm-.52.38,0-.07s0,0,0,0a.21.21,0,0,0,0,.07ZM54.09,5.51l0-.07,0,0a.3.3,0,0,0,0,.08Zm-.7.67.07,0,0,0-.07,0ZM78.48,34.56l0-.07s0,0,0,0,0,0,0,.08ZM80,16,80,16s0,0,0,0a.21.21,0,0,0,0,.07ZM18,10.75l0,0s0,0,0,.07l0,0ZM78.32,41.62l.07,0s0,0,0,0l-.07,0ZM30.23,5.32l0,0-.07,0s0,0,0,0ZM1,34.42l0,.07,0,0a.25.25,0,0,0,0-.07Zm77,7.76s0,0,0,0a.21.21,0,0,0,0,.07l0,0S78,42.21,78,42.18ZM78.5,10.8l0,0-.07,0,0,0ZM2.94,34.12l0-.07s0,0,0,0a.25.25,0,0,0,0,.07ZM77.7,42.85l-.07,0,0,0,.07,0ZM70.93,44.5l0,.07,0,0a.25.25,0,0,0,0-.07ZM58.86,4l0-.07,0,0,0,.07ZM81.42,14.6s0,0,0,0l-.08,0,0,0A.15.15,0,0,0,81.42,14.6ZM17.64,11l0,0s0,.05,0,.08,0,0,0,0A.15.15,0,0,0,17.64,11Zm-.29.14,0,0a.15.15,0,0,0,0,.07l0,0Zm53-7.28-.07,0,0,0,.07,0Zm-68.75,30,.07,0,0,0-.07,0ZM78.46,11.09l-.07,0,0,0s0,0,.08,0ZM2.32,32.82l0,0a.25.25,0,0,0,0-.07l0,0ZM50.66,53l0,0,0-.07s0,0,0,0ZM48.51,53l0,0,.08,0s0,0,0,0ZM78.78,11.17l0,0-.07,0s0,0,0,0ZM50.41,53.31l0-.07s0,0,0,0,0,0,0,.08ZM29,53.63l0,0a.21.21,0,0,0,0-.07l0,0Zm.94.19,0,0a.25.25,0,0,0,0,.07l0,0ZM49.22,3.23l0-.07s0,0,0,0l0,.07ZM4.51,32.44l0,0,.07,0,0,0Zm.11-.14.06,0,0,0-.07,0ZM49.49,3l0,0,.07,0s0,0,0,0Zm26.72-.3,0,0,0,.07s0,0,0,0ZM29.6,55.23l0,0a.21.21,0,0,0,0,.07s0,0,0,0ZM76.4,2.61l0,0-.08,0,0,0Zm.32-.33,0,0a.15.15,0,0,0-.07,0l0,0Zm7.43,9.38,0,.07,0,0a.15.15,0,0,0,0-.07ZM66.79,1.7s0,0,0,0-.05,0-.08,0,0,0,0,0ZM79.38,31l0,.07,0,0a.21.21,0,0,0,0-.07ZM53.28,6.83l.07,0,0,0-.08,0ZM29.06,7.1l0,0s0,.05,0,.08,0,0,0,0Zm48.77,4.37,0-.07,0,0s0,0,0,.07ZM6,30l0,0-.08,0s0,0,0,0ZM33.21,8.19l0,.07,0,0,0-.07Zm46.87,1.93-.07,0,0,0,.07,0ZM32.94,8.38l-.07,0s0,0,0,0a.15.15,0,0,0,.07,0ZM53.66,56.2l0,0s0,.05,0,.08l0,0Zm-47.47-27,0,0a.43.43,0,0,0,0,.07s0,0,0,0Zm.12-.31,0,0-.08,0s0,0,0,0ZM81,12.47l0,0-.07,0s0,0,0,0ZM84,10l0,0,.07,0s0,0,0,0ZM14.75,56.85l0,0s0,0,0,.08,0,0,0,0Zm63.1-47s0,0,0,0l-.07,0,0,0S77.82,9.84,77.85,9.83ZM39.28,57.4l0,.07,0,0a.16.16,0,0,0,0-.07ZM66.4,1.09l.07,0s0,0,0,0a.15.15,0,0,0-.07,0Z"/><path class="cls-1" d="M49.51,58.19c-.12,0-.24,0-.15-.16s.09-.12-.07-.18,0-.25,0-.39-.07-.26.16-.25c.06,0,.05-.12.05-.18s.13-.13.22-.14.12.14.1.2a.6.6,0,0,0,0,.67c0,.06-.05.1-.13.11s0,.07,0,.13S49.68,58.19,49.51,58.19Z"/><path class="cls-1" d="M84.47,16.22c0,.17-.3.15-.28.35-.17,0-.32.25-.47.06s-.28.2-.26-.12c0-.07-.14-.15.07-.16,0,0,.14-.09.15-.14,0-.31.44-.1.49-.38h0c0,.12.09.22.23.23S84.45,16.16,84.47,16.22Zm-.56.23s.06-.11,0-.09-.06.05-.06.07a.5.5,0,0,0,0,.13c.05,0,.07,0,.13-.3a.15.15,0,0,0-.06,0s0,.07,0,0,0,0,.05-.06S84,16.27,83.91,16.45Z"/><path class="cls-1" d="M34.74,8.88h-.17a.11.11,0,0,1-.07-.16,1.4,1.4,0,0,1,.86-.39.28.28,0,0,1,.21.21.2.2,0,0,1-.18.22C35.15,8.7,35,8.93,34.74,8.88Z"/><path class="cls-1" d="M37,7.57c.05,0,.12,0,.11.14s0,.16.06.19.15,0,.16.09-.1.11-.17.14c-.29.13-.28.13-.41-.21S36.71,7.6,37,7.57Z"/><path class="cls-1" d="M80.51,31h-.06c-.07,0-.17.06-.2-.07.14,0,0-.26.2-.26s.43.05.57-.18c0-.07.08,0,.1.05s.13.06,0,.11,0,.19-.11.22-.24,0-.35.12S80.58,31,80.51,31Z"/><path class="cls-1" d="M82.47,43.24s.11,0,.14,0,0,.13-.06.19a.34.34,0,0,1-.23.1c-.12,0-.24,0-.36,0s-.17-.07-.21-.14a.09.09,0,0,1,.12-.12C82.09,43.4,82.25,43.17,82.47,43.24Z"/><path class="cls-1" d="M78.29,15.12c0-.1-.2,0-.21-.11s.06-.16.1-.21.34-.13.47-.27.08.06.06.1a1,1,0,0,1-.31.46S78.35,15.2,78.29,15.12Z"/><path class="cls-1" d="M82.83,40.07a.85.85,0,0,1,0,.16c0,.05,0,.09-.1.08s-.08,0-.09,0,0-.18-.13-.18-.24,0-.18-.06,0-.29.24-.27S82.84,39.75,82.83,40.07Z"/><path class="cls-1" d="M83.59,33c0-.13,0-.21-.17-.2a.2.2,0,0,1,0-.13c0-.06.05-.08.11-.08s.41.2.42.28a1.53,1.53,0,0,1-.31.37s-.12,0-.1-.06S83.61,33.1,83.59,33Z"/><path class="cls-1" d="M80.75,20.2a1.9,1.9,0,0,1-.4-.24s0-.16,0-.24.18-.14.29,0a1.92,1.92,0,0,0,.13.17s.1,0,0,.11S80.78,20.15,80.75,20.2Z"/><path class="cls-1" d="M83.27,41.07c.07,0,.2,0,.21.08s0,.31-.12.43-.09,0-.09,0,0-.13-.11-.14-.19.07-.2-.07S83.16,41.07,83.27,41.07Z"/><path class="cls-1" d="M76.38,46.6h0c-.08,0-.2,0-.21-.09s.08-.19.17-.23a.61.61,0,0,1,.27,0c.08,0,.21,0,.2.1s-.06.23-.21.23Z"/><path class="cls-1" d="M81.31,31.53h.31c.08,0,.14,0,.13.11-.17,0-.24.24-.43.27s-.17.09-.21,0-.08-.22.07-.27S81.32,31.64,81.31,31.53Z"/><path class="cls-1" d="M25.58,53c-.06,0-.1,0-.08-.11s-.05-.2.08-.21.13-.34.37-.23.12.11.08.16-.31.22-.4.39Z"/><path class="cls-1" d="M66.9,1.82c0,.05,0,.12-.07.11s-.16.14-.28.12-.15,0-.19-.06,0-.12.07-.18.15-.07.23-.11A.16.16,0,0,1,66.9,1.82Z"/><path class="cls-1" d="M81.94,44.86a.5.5,0,0,1-.15,0s0-.06,0-.09,0-.07,0-.08.23,0,.33-.11.16,0,.24,0,0,0,0,.07,0,.27-.21.23Z"/><path class="cls-1" d="M79.75,9.52a.1.1,0,0,1-.06-.12c0-.06,0-.19,0-.18S79.87,9,80,9s.07-.17.15-.07a1,1,0,0,1,.09.26c-.21,0-.2.3-.41.3C79.78,9.48,79.77,9.5,79.75,9.52Z"/><path class="cls-1" d="M81.05,19.82s-.06-.05-.06-.07,0-.17,0-.21.21-.29.43-.26,0,.23-.1.33a.84.84,0,0,0-.14.06Z"/><path class="cls-1" d="M39.35,59.9a1,1,0,0,1-.34.33c-.1,0-.14-.09-.18-.16s0-.13,0-.13.23-.17.39-.12S39.36,59.82,39.35,59.9Z"/><path class="cls-1" d="M80,21.17l0,0c-.21,0-.26.29-.49.24-.06,0-.11,0-.12-.07s0-.14,0-.14.2-.16.3-.18S79.91,21.13,80,21.17Z"/><path class="cls-1" d="M28,57.46c0,.07,0,.19-.1.19s-.07.2-.17.21,0-.13-.07-.17.08-.23.08-.36S28,57.36,28,57.46Z"/><path class="cls-1" d="M81.93,31.31c-.07,0-.2,0-.18-.11a.26.26,0,0,1,.3-.21c.13,0,.13.07.13.17S82,31.3,81.93,31.31Z"/><path class="cls-1" d="M80.67,19.21c0,.12,0,.19-.13.25a.2.2,0,0,1-.28,0c-.1-.11,0-.18.1-.25a.56.56,0,0,1,.18-.07s0-.12.11,0S80.66,19.17,80.67,19.21Z"/><path class="cls-1" d="M82,17.27a.29.29,0,0,1-.19.28.19.19,0,0,1-.2-.14,1.19,1.19,0,0,1,.12-.29Z"/><path class="cls-1" d="M81,32.29h-.43a.1.1,0,0,1-.08-.06s0,0,0,0h1s0,0,.06.06,0,0-.08,0Z"/><path class="cls-1" d="M80.05,20.15c-.17.05-.25,0-.29-.19s-.1-.08-.06-.13.11,0,.15,0,.12.12.23.1.14,0,.15.1S80.14,20.15,80.05,20.15Z"/><path class="cls-1" d="M28,59c-.09,0-.23.08-.26-.09a.24.24,0,0,1,0-.19c0-.06.17-.1.18,0s.07.17.19.17.09,0,.14,0a.11.11,0,0,1-.12.06Z"/><path class="cls-1" d="M54,58.19c0,.11.12.31-.13.32-.07,0-.11.19-.18.05a.16.16,0,0,1,.07-.26c.07,0,.14,0,.13-.11Z"/><path class="cls-1" d="M82.29,19.49c0,.15-.17.21-.26.31l-.11-.07s-.06-.06,0-.08.28-.13.37-.25Z"/><path class="cls-1" d="M85,36.27c0-.12.14-.07.22-.08a.09.09,0,0,1,.1.13.58.58,0,0,1-.16.19S85,36.32,85,36.27Z"/><path class="cls-1" d="M49.77,55.92c0-.32,0-.32.33-.33a.5.5,0,0,0-.1.21C50,56,49.86,55.9,49.77,55.92Z"/><path class="cls-1" d="M82.56,32.51a.27.27,0,0,1,.12,0s0,0,0,.08,0,.12-.06.12-.22.05-.28-.07-.12,0-.09-.09a.11.11,0,0,1,.08-.05Z"/><path class="cls-1" d="M79.17,21.88c-.07,0-.13-.05-.11-.06s0-.27.2-.26.1.11.1.19S79.24,21.87,79.17,21.88Z"/><path class="cls-1" d="M84,38s.08,0,.1,0,0,.07,0,.1a.2.2,0,0,1-.08.08s-.06.16-.14.07a.88.88,0,0,1-.1-.22c0-.09.08-.06.13-.07Z"/><path class="cls-1" d="M65.42,51.81a1.13,1.13,0,0,1,0-.15c0-.08,0-.19.11-.18s.19-.06.21.07,0,.14-.15.15S65.47,51.76,65.42,51.81Z"/><path class="cls-1" d="M80.75,31.86c-.08,0-.09,0-.09-.11s.1-.11.18-.11.15,0,.15.09S80.86,31.84,80.75,31.86Z"/><path class="cls-1" d="M84.36,37.06c-.11,0-.13-.06-.12-.14s.14-.07.22-.08.12.06.1.14S84.43,37,84.36,37.06Z"/><path class="cls-1" d="M84.78,37.62c0,.13-.12.08-.19.09s-.15-.08-.13-.17.14,0,.21,0S84.79,37.53,84.78,37.62Z"/><path class="cls-1" d="M79,45.62a.48.48,0,0,1-.12,0l-.08,0s.06-.06.09-.06.12-.06.13-.16.1-.05.1,0,.11.17.1.22S79.09,45.61,79,45.62Z"/><path class="cls-1" d="M84.24,17c-.07.08-.15.15-.23.23s-.09,0-.09,0a.33.33,0,0,1,0-.2c.06-.09.16,0,.25,0S84.26,16.9,84.24,17Z"/><path class="cls-1" d="M77.74,3c.11,0,.34-.12.31.14s-.21,0-.31.08Z"/><path class="cls-1" d="M31.24,59.09c0,.16-.18.06-.27.07s-.07-.07,0-.12.17-.07.26-.08S31.25,59,31.24,59.09Z"/><path class="cls-1" d="M29.29,59.46s-.06,0-.14,0-.18,0-.19-.1.06-.12.14-.11S29.29,59.24,29.29,59.46Z"/><path class="cls-1" d="M82.19,32.61c.09,0,.11,0,.1.11s-.05.13-.12.11-.19-.11-.18-.15S82.12,32.63,82.19,32.61Z"/><path class="cls-1" d="M81.31,20.36c0,.12,0,.26-.17.22,0,0-.12,0-.13,0s0-.07.09-.07.1-.06.11-.13,0-.1.1-.08S81.31,20.33,81.31,20.36Z"/><path class="cls-1" d="M82.16,31.72l-.15.12c-.05-.08-.14-.09-.22-.11s0-.06,0-.09a2.71,2.71,0,0,1,.41,0C82.22,31.7,82.16,31.64,82.16,31.72Z"/><path class="cls-1" d="M77.47,3.23s-.06-.06-.06-.11,0-.19.09-.2h.16s.07,0,.07.05-.06,0-.1,0-.11,0-.11.13S77.49,3.21,77.47,3.23Z"/><path class="cls-1" d="M74.81,2.83a.1.1,0,0,1-.11.09c-.1,0-.11-.06-.1-.14s0-.08.1-.08S74.81,2.76,74.81,2.83Z"/><path class="cls-1" d="M82,30.56c-.1,0-.12-.06-.11-.14s0-.08.1-.08.12.06.11.13A.08.08,0,0,1,82,30.56Z"/><path class="cls-1" d="M28.09,58.63c-.09,0-.11,0-.1-.11s.05-.11.06-.09.24.06.24.13S28.16,58.61,28.09,58.63Z"/><path class="cls-1" d="M1,35c0,.06,0,.09-.11.09S.78,35.05.78,35s0-.08.11-.08S1,35,1,35Z"/><path class="cls-1" d="M79.58,14.18c0,.09,0,.12-.12.12s-.11-.08-.09-.15.09-.07.16-.07S79.56,14.15,79.58,14.18Z"/><path class="cls-1" d="M84.33,16.68c.09,0,.12,0,.13.09s-.08.13-.17.13,0-.07-.05-.11A.09.09,0,0,1,84.33,16.68Z"/><path class="cls-1" d="M62.39,53.3c-.08-.06,0-.13,0-.2s0-.11.13-.11l0,0c.07.1-.14.14-.06.25Z"/><path class="cls-1" d="M25.18,54.72c-.06,0-.12,0-.1-.06s.13,0,.19,0,.12,0,.1.07S25.24,54.71,25.18,54.72Z"/><path class="cls-1" d="M24.86,55.05c-.06,0-.13,0-.1-.07s.12,0,.19,0,.11,0,.09.07S24.91,55,24.86,55.05Z"/><path class="cls-1" d="M82.08,17l.09,0a1.29,1.29,0,0,1-.16.17s-.05,0-.05,0S82,17,82.08,17Z"/><path class="cls-1" d="M80.86,7l-.14.15a.35.35,0,0,1,0-.13c0-.1.08-.09.15-.08S80.85,7,80.86,7Z"/><path class="cls-1" d="M77.74,3.32c0,.11,0,.14-.12.14s-.11,0-.07-.07.09-.16.19-.14Z"/><path class="cls-1" d="M81.54,18.58s-.07.05-.1.05-.13,0-.12-.11a.32.32,0,0,1,0-.09Z"/><path class="cls-1" d="M81.38,20.05c.05.05.13.09.13.14s-.09.06-.14.07,0-.07-.05-.1S81.33,20.07,81.38,20.05Z"/><path class="cls-1" d="M81.37,30.45s-.05-.06-.05-.09,0-.14.1-.13.11,0,.09.07A.66.66,0,0,1,81.37,30.45Z"/><path class="cls-1" d="M81,30.34c-.06,0-.12,0-.1-.07s.13,0,.19,0,.12,0,.1.07S81.06,30.32,81,30.34Z"/><path class="cls-1" d="M82.06,43.82s0,.06,0,0-.06-.09-.07-.15,0-.07.05,0A.11.11,0,0,1,82.06,43.82Z"/><path class="cls-1" d="M67,2.92V2.7c.1,0,.11.06.1.13A.08.08,0,0,1,67,2.92Z"/><path class="cls-1" d="M85.14,13.65l.08,0a.39.39,0,0,1-.14.05s0,0-.08-.05A.14.14,0,0,1,85.14,13.65Z"/><path class="cls-1" d="M80.78,20.46l-.06.12s0,0,0-.08a.29.29,0,0,1,0-.13Z"/><path class="cls-1" d="M49.55,55.34s-.09,0-.13,0a.08.08,0,0,1-.08-.1s.07,0,.1,0A.09.09,0,0,1,49.55,55.34Z"/><path class="cls-1" d="M1.06,35.76A.13.13,0,0,1,1,35.59c0-.05.05-.06.07,0a.58.58,0,0,1,0,.14S1.11,35.77,1.06,35.76Z"/><path class="cls-1" d="M83.14,17c0,.06-.09,0-.14,0s0-.05,0-.06.09,0,.14,0S83.13,16.94,83.14,17Z"/><path class="cls-1" d="M82.17,17.62c0,.06-.1,0-.15,0s0,0,0-.06.09,0,.13,0S82.15,17.59,82.17,17.62Z"/><path class="cls-1" d="M80.45,7.36s-.1,0-.09-.07.06,0,.09,0,.1,0,.08.07S80.48,7.35,80.45,7.36Z"/><path class="cls-1" d="M84.36,37.49a.09.09,0,0,1-.11-.06.33.33,0,0,1,.13,0,.11.11,0,0,1,.08,0C84.47,37.54,84.39,37.47,84.36,37.49Z"/><path class="cls-1" d="M83.74,37.4s.06,0,.05,0-.09,0-.15.06-.07,0,0-.05A.11.11,0,0,1,83.74,37.4Z"/><path class="cls-1" d="M85.2,37.42l0,.07,0,0s0-.05,0-.08Z"/><path class="cls-1" d="M80.29,7.47l0,.07,0,0a.3.3,0,0,1,0-.08Z"/><path class="cls-1" d="M84.55,38.07l0,.07,0,0s0,0,0-.08Z"/><path class="cls-1" d="M34.77,7.8s0,0,0,0,0,0,0,.06-.07,0,0-.05S34.75,7.82,34.77,7.8Z"/><path class="cls-1" d="M35.41,7.9a.43.43,0,0,0,0,.07s0,0,0,0a.21.21,0,0,1,0-.07S35.4,7.91,35.41,7.9Z"/><path class="cls-1" d="M83.34,42.93l0,0-.07,0,0,0Z"/><path class="cls-1" d="M4.68,35.82s0,0,0,0,0,0-.06-.05,0-.06,0,0S4.66,35.8,4.68,35.82Z"/><path class="cls-1" d="M81.42,43.94a.15.15,0,0,1-.07,0s0,0,0,0,0,0,.08,0S81.41,43.93,81.42,43.94Z"/><path class="cls-1" d="M83.93,44.28l0-.07s0,0,0,0a.21.21,0,0,1,0,.07Z"/><path class="cls-1" d="M82.85,44.61l0-.07,0,0,0,.08Z"/><path class="cls-1" d="M82.25,18l-.07,0s0,0,0,0l.07,0Z"/><path class="cls-1" d="M76.83,46.15l-.07,0,0,0,.07,0Z"/><path class="cls-1" d="M76.75,46.66l0,0s0,0-.06,0,0-.06,0,0A.15.15,0,0,1,76.75,46.66Z"/><path class="cls-1" d="M82.89,17.87l0,.08,0,0a.25.25,0,0,1,0-.07S82.87,17.89,82.89,17.87Z"/><path class="cls-1" d="M81.73,18.27l0,0,0-.08,0,0Z"/><path class="cls-1" d="M25.48,54.36l0,0a.21.21,0,0,1,0-.07l0,0Z"/><path class="cls-1" d="M49.77,56s0,.05-.06,0-.05,0,0-.06l.08,0Z"/><path class="cls-1" d="M2.69,34.14l0,0a.13.13,0,0,1-.05.07s-.06,0,0-.05S2.67,34.16,2.69,34.14Z"/><path class="cls-1" d="M33.52,8.44s.1,0,.08.08l-.08,0Z"/><path class="cls-1" d="M48.89,57.29l0,0s0,0,0-.08l0,0Z"/><path class="cls-1" d="M50.42,57.27s0,0-.06,0,0,0,0-.06l.08,0Z"/><path class="cls-1" d="M83,18.89l0,0a.25.25,0,0,1,0,.07s0,0,0,0Z"/><path class="cls-1" d="M79.64,14l0,0s0,.06-.05.07-.07,0,0-.05S79.62,14,79.64,14Z"/><path class="cls-1" d="M80.33,30.29l0,0s-.06,0-.07,0,0-.07,0-.05S80.31,30.27,80.33,30.29Z"/><path class="cls-1" d="M38.16,58.88l0,.07,0,0s0-.05,0-.08Z"/><path class="cls-1" d="M53.46,58.9l-.07,0,0,0,.07,0Z"/><path class="cls-1" d="M38.72,59l-.06,0s0,0,0-.07l.08,0Z"/><path class="cls-1" d="M38.79,59.18l0,0-.08,0,0,0Z"/><path class="cls-1" d="M67,2.7l0-.06c0-.05,0-.05.07,0l0,.08Z"/><path class="cls-1" d="M76.71,2.37s0,0,0,.08l0,0a.43.43,0,0,1,0-.07S76.7,2.39,76.71,2.37Z"/><path class="cls-1" d="M39.46,60.11l0,0a.15.15,0,0,1,0-.07l0,0Z"/></g><path class="cls-2" d="M23.14,32.14a18.16,18.16,0,0,0,3.3-3.74,6.81,6.81,0,0,0,1.23-3.59,3.25,3.25,0,0,0-.89-2.41,3.45,3.45,0,0,0-2.55-.9,5.55,5.55,0,0,0-2.68.62,9.22,9.22,0,0,0-2,1.5l-.73-1a9.1,9.1,0,0,1,1.48-1.26,8.73,8.73,0,0,1,2-1,7.11,7.11,0,0,1,2.44-.42,6.16,6.16,0,0,1,2.95.64,4.27,4.27,0,0,1,1.76,1.68,4.56,4.56,0,0,1,.58,2.26,6.63,6.63,0,0,1-1.19,3.57,16.82,16.82,0,0,1-3.15,3.54,29,29,0,0,1-4.29,3h8.28l.82-2.49,1.14.24-.61,3.72H19l-.33-.87A25.27,25.27,0,0,0,23.14,32.14Z"/><path class="cls-2" d="M35.76,27.36q2.22-4.63,4-8.6h.6l1.51,1.07L34.71,33.32l-1,1.46h7.18l0-5.21,1.82-.16v5h3.79v1.71H42.76v4.12H40.92V36.14h-8.5l-.55-1Q33.53,32,35.76,27.36Z"/><path class="cls-3" d="M55.49,10.79l-7.16,34.5h-.91l7.16-34.5Z"/><path class="cls-2" d="M58.09,21.84l-.87,3.23-1.36-.23.51-4.68h11.3l.44.55-4,11.1q-1.09,3.06-1.93,5.43c-.56,1.58-.94,2.65-1.15,3.21l-2.26-.62c.82-1.82,1.64-3.73,2.45-5.71s1.83-4.52,3-7.58c.84-2.11,1.46-3.68,1.88-4.7Z"/></g></g></svg>