<svg xmlns="http://www.w3.org/2000/svg" viewBox="0 0 139.22 128.14"><defs><style>.cls-1{fill:#f15b5a;}</style></defs><title>Asset 29</title><g id="Layer_2" data-name="Layer 2"><g id="Layer_1-2" data-name="Layer 1"><g id="EOjNyj"><path class="cls-1" d="M69.8,128.13h-62c-7,0-7.89-1-7.84-7.61.14-17.33.19-34.65.29-52,0-8.11.33-8.4,8.39-8.41,8.83,0,17.67-.14,26.5.07,3.15.08,4-1,3.87-4-.21-6,0-12-.1-18-.05-2.39.77-3.16,3.15-3.15q27.49.1,55,0c2.48,0,3.1.95,3.06,3.23-.11,6,.14,12-.11,18-.13,3.17,1,3.94,4,3.88,9.66-.17,19.33.09,29-.13,4.56-.11,6.21,1.63,6.17,6.14-.14,18.49-.22,37,.05,55.48.08,5.09-2.25,6.34-6.53,6.33q-31.44,0-62.89,0ZM44.11,81.19c0,12.5.11,25-.06,37.49,0,3.45,1.45,4.8,4.41,4,2.76-.71,7.64,2,7.55-4.17-.1-6.67.07-13.33-.07-20,0-2.52.63-3.54,3.34-3.47q10.25.24,20.49,0c2.66-.07,3.45.84,3.39,3.43-.15,6.66.18,13.34-.13,20-.18,3.86,2.21,5,4.79,4.41s7.2,1.53,7.19-4.1q-.08-37.5,0-75c0-2.88-.89-3.66-3.68-3.63-14.5.12-29,.15-43.49,0-3.24,0-3.85,1.1-3.81,4C44.19,56.53,44.11,68.86,44.11,81.19Zm89.88,13c0-8-.11-16,0-24,.06-3.53-.95-5.12-4.82-5-8.16.24-16.33.2-24.49,0-3.43-.08-4.71,1-4.68,4.56.14,16.16.19,32.33,0,48.49,0,3.68,1.57,4.72,4.6,4.74q12.45.08,24.88,0c3.08,0,4.68-1.23,4.56-4.82C133.79,110.18,134,102.18,134,94.19ZM5.79,93.7c-.92,8.5,0,17,0,25.46,0,2.85.92,3.86,3.71,3.84,8.3-.07,16.59.08,24.89,0,2.85,0,4.79-.82,4.74-4.62q-.33-24,0-48c0-4.05-1.55-5.24-5.24-5.18-8.17.12-16.33.14-24.49,0-3.09,0-3.8.86-3.66,4C6,77.38,5.79,85.55,5.79,93.7ZM80,110.9c0-3-.1-6,0-9,.13-2.81-1.06-3.82-3.83-3.73-4.3.16-8.62.11-12.93,0-2.11,0-3,.39-3.47,2.83-1,4.64-.58,9.25-.63,13.86-.1,8.49,0,8.49,8.49,8.44C80,123.28,80,123.28,80,110.9Z"/><path class="cls-1" d="M83.11,17c0,4.67-.13,9.33,0,14,.11,2.71-1,3.61-3.48,3.3-2.27-.29-5.39,1-5.66-3-.1-1.33,0-2.66,0-4,0-6.16,0-6-6.08-5.23-2,.27-3,.82-2.82,3,.14,1.65-.12,3.34,0,5,.35,3.16-.69,4.42-4.1,4.34s-5.26-.55-5.13-4.62q.39-12.73,0-25.48C55.78.34,57.66.08,60.74,0s4.86.63,4.39,4.12a22.93,22.93,0,0,0,0,3c0,4.49,3.58,6.7,7.72,4.91,1.25-.53,1.11-1.48,1.14-2.43a29.68,29.68,0,0,0,0-5C73.35.68,75.22,0,78.76,0s4.68,1,4.42,4.48C82.88,8.63,83.11,12.81,83.11,17Zm-24,.26c0,3.83,0,7.66,0,11.49,0,.92-.23,2.14,1.2,2.28,1.88.18,1.6-1.27,1.62-2.37.06-2.33,0-4.66,0-7,0-1.85.36-3.46,2.6-3.45,3.81,0,8.12-1.28,11.29.61,2.86,1.69.75,5.86,1.23,8.89,0,.32,0,.67,0,1,.11.91-.25,2.14,1.19,2.3,1.86.22,1.64-1.22,1.64-2.32,0-6.16.17-12.33-.06-18.48-.07-2,1.4-5.83-1.35-5.79s-1.16,3.83-1.36,5.93c-.29,3.05.78,6.5-4.73,5.17-2.86-.69-6.74,1.35-9,.09-3.21-1.77-.89-6.08-1.44-9.24-.18-1-.21-2.13-1.5-2.16-2-.06-1.32,1.58-1.34,2.55C59.06,10.24,59.12,13.74,59.12,17.23Z"/><path class="cls-1" d="M82.34,65.25c-7.35,0-7.35,0-7.35-7.35,0-7.77,0-7.77,7.86-7.77a23.61,23.61,0,0,0,3.47,0c3.15-.45,4.21.93,3.82,3.92a26.76,26.76,0,0,0,0,3.47C90.11,65.25,90.11,65.25,82.34,65.25Z"/><path class="cls-1" d="M90.32,80.06c-.16,8.19-.16,8.23-8.14,8.18s-7.11.93-7.19-7.12a17.1,17.1,0,0,0,0-2.48c-.72-4.48.93-6.47,5.58-5.54.8.16,1.7-.15,2.47.06,2.3.62,5.09-2.18,6.44-.3C90.69,74.58,90.11,77.61,90.32,80.06Z"/><path class="cls-1" d="M49,79.87c1.64-1.81-3.16-7.06,3.23-7,11.9.17,11.9.29,11.89,9,0,6.38,0,6.38-8.89,6.37C49,88.25,49,88.25,49,79.87Z"/><path class="cls-1" d="M56.19,65.23c-3.81.07-7.89,1.54-7.38-5.41.69-9.64.16-9.68,5.63-9.69,9.66,0,9.66,0,9.67,5.47C64.13,65.23,64.13,65.23,56.19,65.23Z"/><path class="cls-1" d="M125,103c-.22,8.4-.23,8.59-8.11,8.14-9.78-.56-8.06,1.5-7.73-11.5.22-8.75,7.53-3.69,11.49-4.31C127.76,94.21,123.66,100.48,125,103Z"/><path class="cls-1" d="M117,89.25c-8,0-8,0-8-8.13s-1.06-6.88,7.23-7c1.66,0,3.33.1,5,0,3.24-.25,4.1,1.39,3.63,4.25a14.28,14.28,0,0,0-.3,2.9C124.86,89.25,124.87,89.25,117,89.25Z"/><path class="cls-1" d="M22,111.17c-1.91-1.74-7.37,3.15-7.11-4.17.49-13.9-.64-11.79,4.39-11.82,12.07-.06,10.74-1,10.83,4.93C30.26,111.08,30.21,111.08,22,111.17Z"/><path class="cls-1" d="M21.59,89.25c-.5,0-1,0-1.5,0-3.59.17-7.26.53-5.17-5.15a6.25,6.25,0,0,0,0-3.94C12.57,73.63,16.75,74,21,74.1c10.3.23,9.07-1.32,9.07,7.82C30.09,90.49,31.22,89.11,21.59,89.25Z"/></g></g></g></svg>