<svg xmlns="http://www.w3.org/2000/svg" viewBox="0 0 123.11 121.43"><defs><style>.cls-1{fill:#f15b5a;}</style></defs><title>Asset 42</title><g id="Layer_2" data-name="Layer 2"><g id="Layer_1-2" data-name="Layer 1"><g id="EOjNyj"><path class="cls-1" d="M123.11.62c-4.6,4.32-9,8.34-13.2,12.45-1.31,1.26-2.69,2.11-1.86,4.89.88,2.94-2.59,5.08-4.44,7.17-3,3.44-5,6.16-.18,9.67,2.66,2,1.49,4.24-.47,6.18Q81.58,62.21,60.21,83.44c-5.29,5.27-10.37,10.76-15.78,15.9-1.52,1.43-1.33,2-.28,3.48,2.54,3.5,2.75,7.4-.82,10-3.29,2.41-7.1,2.29-10.14-1.26-1.41-1.64-3.19-3-4.53-4.65-2.08-2.61-3.82-2.76-6.37-.39s-2.24,4.12.16,6.08c2.93,2.38,2.28,5.33.19,7.35s-5.1,2-7.51-.49c-4.32-4.39-8.62-8.8-13.07-13-2.75-2.63-2.62-5.53-.38-7.89s5.09-2.32,7.24.58c2.42,3.26,4.11,1.52,6.33-.44C17.84,96.4,17,95,14.91,93.19,13,91.56,11.34,89.7,9.58,87.92c-3-3-3.37-7-1.06-10S14.9,75,18.4,77c1.48.84,2.56,2.54,4.32.14,5.05-6.91,11.68-12.36,17.6-18.47,10.26-10.59,21-20.75,31.45-31.12,2.78-2.75,5.93-5,8.2-8.4,1.85-2.73,4.81-3.09,7,0,2.35,3.33,4.62,2.59,7.17.43C96,18,98,16.44,99.9,14.87c.51-.42,1-1.36,1.42-1.33,9.06.74,11.16-8.25,16.94-12.07C119.45.69,120.25-.87,123.11.62ZM83.36,22.31c-19.24,19.58-38.14,38.81-57,58.06C25,81.73,24.08,83,26.1,84.83c3.56,3.29,6.87,6.86,10.18,10.42,1.65,1.77,2.81,1.5,4.43-.12q27.84-28,55.8-55.83c1.28-1.28,1.53-2,.09-3.43C92.34,31.69,88.25,27.34,83.36,22.31Zm-43.09,85a5.41,5.41,0,0,0-.83-1.47q-12-12-24-24c-.78-.78-1.91-1.11-2.63-.28-1,1.19.08,1.77,1,2.66,5,5.09,9.84,10.42,14.88,15.52,2.88,2.91,6,5.52,9.11,8.25C38.73,108.82,39.71,109.6,40.27,107.29Z"/></g></g></g></svg>