<svg xmlns="http://www.w3.org/2000/svg" viewBox="0 0 141.19 125.13"><defs><style>.cls-1{fill:#f15b5a;}</style></defs><title>EOjNyj (5)</title><g id="Layer_2" data-name="Layer 2"><g id="Layer_1-2" data-name="Layer 1"><g id="EOjNyj"><path class="cls-1" d="M70.38,125.13h-55C4.9,125.13,0,120.25,0,109.53Q0,68.31,0,27.08c0-4.33-.06-8.67,0-13C.18,5.1,5.36,0,14.38,0q56,0,111.94,0c9.85,0,14.81,5,14.82,15.06q0,47.73.05,95.45a16.15,16.15,0,0,1-1.2,6.26c-2.42,5.88-6.14,8.35-12.64,8.36Zm-.11-120C51.62,5.13,33,5.24,14.32,5,10.13,5,7.47,7,6.38,10.31a24.61,24.61,0,0,0-1.3,8.28c.21,8.31.1,16.64.1,25,0,22,0,44,0,65.93,0,7.25,3.49,10.52,10.69,10.52q54.69,0,109.39,0c7.25,0,10.22-2.92,10.33-10.12.12-8.49.29-17,.32-25.46.06-23,0-45.94.09-68.9,0-6.72-3.55-10.38-10.3-10.39Z"/><path class="cls-1" d="M70.17,115.15c-18,0-36-.14-54,.09-4.66.06-6.33-1.11-6.3-6.09.22-31,.11-62,.11-92.94,0-6.47.4-7,7-7,12.32-.06,24.64.06,37,.05,23.47,0,46.93-.08,70.39-.07,6.06,0,6.77.8,6.77,6.91,0,31.15-.08,62.29.09,93.44,0,4.31-1.25,5.92-5.62,5.88-18.48-.14-37-.06-55.45-.06ZM27.64,52.73c-1.85.59-1.31,2.15-2,3s-.27,2.62-1.63,2.89c-1.82.36-1.68-1.59-2.43-2.52-1.92-2.4-4.48-.73-6.69-.8s-1.7,2.06-1.7,3.48c0,16.66,0,33.32-.08,50,0,2.76,1.05,3.26,3.51,3.25q54-.09,108,0c2.44,0,3.55-.48,3.53-3.27C128,92,128,75.12,128.06,58.3c0-2.3-.61-3.31-3.07-3.21-3.83.16-8,1-11.41-.21-3.62-1.24-6.83,4.9-10,0a7.74,7.74,0,0,0-1.16,1.55c-.45,1-.76,2.14-1.12,3.22s-.42,2.24-1.66,2.13c-1.39-.12-1.76-1.41-1.59-2.62.34-2.5-1-4.61-1.4-7.23l-3.2,7.27c-2.2-.81-1.64-3.92-3.68-3.91-5.28,0-10.73-1.21-15.78.64-2.61,1-4.13,1.19-5.23-1.82-1.34,3.11-2,6.07-4,8.44-2-3-.91-6.82-3.17-9.64a11.45,11.45,0,0,0-1.08,1.46c-1.09,2.12-1,8.78-4.53,1.15-.29-.62-.68-.59-1.16-.51-5.69.9-11.73-1.38-17.13,1.44-2.62,1.36-2.31-1-3.22-1.83-2.83,1.83-1.57,6-4.91,8.13Zm6-2.69c2.25.62,1.68,3.87,3.53,3.83,5.42-.11,11.07,1.41,16.21-.8,2.61-1.12,3.79,0,5.2,1.57,1.21-2.77,1.27-5.69,3.46-7.6,3.38,2.37.77,6.75,3.46,9.37,1-2.44,1.83-4.69,3.39-6.4,2.16.77.88,4.07,4,3.86,4.47-.3,9,0,13.46.1,2,.06,3-2.33,5-1.77,2.58.73,2.56.81,3.44-1.4.57-1.42.85-3,2.65-4.54.81,3.87,1.49,7.16,2.42,11.65,1.43-3.37,1.47-6.06,3.85-7.84,1.36,4.09,4.78,3.79,8.06,3.8,4.57,0,9.14,0,13.71,0,1.83,0,2.59-.67,2.55-2.62-.1-6.16,0-12.33,0-18.49,0-1.22-.11-2.51-1.7-2.5-5.94,0-12.09-1.38-17.76.75-2.56,1-3.84.64-5.31-1.58-.8,2.06-1.46,3.56-2,5.12-.33,1,.11,2.82-1.5,2.61-1.33-.17-1.9-1.71-1.73-3.13.28-2.2-.5-4.13-1.35-6.07-2.52,3.73-2.42,2.95-7,2.39-5.16-.63-10.8-1.57-15.7.59-3,1.31-4.08.09-5.43-1.76-1.68,2.65-1.46,5.86-3.61,8-2.94-2.73-.82-6.88-3.25-9.64-1.57,2.07-1.52,4.78-3.48,6.47-2.54-3.61-16.07-6.33-19.57-3.16s-3.26-.7-4.7-1.35c-1.74,2.36-1.44,5.73-4.11,7.75-1.68-3.14-1.48-6.54-2.63-10.37-.73,1.56-1.06,2.28-1.4,3-1,2.09-1,7.55-4.52,1.09-.84-1.52-4.57-1.22-6.91-.64-1.92.48-1.22,2.49-1.24,3.88q-.11,7.74,0,15.49c.05,4.16,1.88,5.46,5.61,3.37,2.47-1.38,3.68-.73,4.85,1.31,2.07-2.35,1.54-5.72,4.5-8,.82,3.8,1.56,7.2,2.37,11C31.64,54.73,32.65,52.39,33.68,50Zm0-25c2.28.52,1.69,3.81,3.48,3.77,5.43-.12,11.07,1.4,16.23-.68,2.69-1.08,3.89-.42,5.07,1.87,1.19-3,1.91-5.76,4-8.55l2.93,10.05c2.46-5.34,2.46-5.34,5.93-2.57.1.08.21.25.28.23,5.58-1.07,11.52,1.35,16.79-1.15,2.69-1.27,3.54-.13,4.73,2.48.87-2.8,1.39-4.68,2-6.51.33-.91.83-1.95,2.06-1.76s.73,1.27.89,2l1.51,6.9c.62-.26.84-.27.89-.38,2-4,1.94-3.95,5.31-2a5.45,5.45,0,0,0,2.45.18c2.5,0,5,.05,7.49.05,13,0,12.94,0,12.28-13-.13-2.49-.78-3.28-3.47-3.27q-50,.18-99.94.08c-12.85,0-12.83-.09-11.53,12.85.12,1.2.23,2.1,1.45,2.86,3.08,1.9,6.45-3.88,9.29.47a5.34,5.34,0,0,1,.53-.83c1.62-1.67.55-6,3.53-5.5,2.66.48.24,4.58,1.91,6.66.5.64.38,1.77.67,3.34C31.74,29.75,32.72,27.41,33.69,25.06Z"/><path class="cls-1" d="M56.78,85.53a11.06,11.06,0,0,1-3.55,7.08c-10.42,10.28-6.53,10.21-17.88-.77a7.57,7.57,0,0,1-1.23-9.93c2-3.3,4.9-4.7,8.82-3.17a6.49,6.49,0,0,0,3.9,0C51.93,77.47,56.63,80.88,56.78,85.53Zm-3.44,1.28a10.54,10.54,0,0,0-.69-3.09c-1.67-2.77-14.32-2.3-16,.56a3.24,3.24,0,0,0,.67,4.47c2.71,2.31,5.72,7.82,7.73,6.52C48,93.37,52.17,91,53.34,86.81Z"/><polygon class="cls-1" points="86.56 95.81 86.43 95.47 86.76 95.5 86.56 95.81"/></g></g></g></svg>