<svg xmlns="http://www.w3.org/2000/svg" viewBox="0 0 110.82 130.98"><defs><style>.cls-1{fill:#f15b5a;}</style></defs><title>Asset 18</title><g id="Layer_2" data-name="Layer 2"><g id="Layer_1-2" data-name="Layer 1"><g id="EOjNyj"><path class="cls-1" d="M56.08,130.89c-8.84,0-17.68-.29-26.5.06-15.52.62-25.42-11.66-28.3-24.23s-.22-25,1.21-37.46A242.5,242.5,0,0,0,4.27,40c-.09-11.83.05-23.67-.08-35.5,0-3.17.88-4.35,4.25-4.33C24.76.26,41.08.09,57.4,0c3.52,0,5.17,1.09,5.09,5.23-.29,15.83-.13,31.66-.12,47.5,0,13.89,8.36,22.5,22.32,23,13.52.52,23.88,10.88,25.84,24.08,2.15,14.46-7.78,27.26-20.09,30.48-4.44,1.15-8.92.43-13.37.53C70.08,131,63.08,130.89,56.08,130.89ZM5.54,95.18c-.92,5.19.86,10,2.29,14.87,1,3.34,2.78,4.5,5.87,1.73,5.54-5,11.21-9.8,16.85-14.65,9.36-8.06,18.34-16.65,28.29-23.9,4.94-3.61,1-5.52.49-8.31-.74-4.08-3.9-2.34-5.42-1.76C39.37,68.76,24.35,73,9.7,78.2c-1.41.5-3.47.83-3.29,3.12C6.77,86,4.51,90.44,5.54,95.18Zm26.33,30.55c4.08,1.2,6.55-1.34,9-5,9-13.23,18.21-26.24,27.3-39.38.92-1.32,3.81-2.62.68-4.57-2.41-1.49-3.94-5.27-7.92-1.27-5.89,5.92-12.62,11-19,16.44Q28,103.84,14,115.71c-1.69,1.43-1.5,2.19.15,3.75C19,124.05,24.65,126.08,31.87,125.73Zm1.38-100c2.67,0,5.33,0,8,0,5.13-.09,12,1.72,14.93-.89,3.34-3,.58-10,1.12-15.27C57.67,5.9,56,5.1,52.73,5.14c-13.63.18-27.27.21-40.9.17C9.71,5.3,9.32,6.17,9.35,8c.07,4.83.16,9.67,0,14.49-.11,2.69.9,3.4,3.45,3.35C19.59,25.67,26.42,25.76,33.25,25.76Zm.55,3.13c-3,0-6-.08-9,0-4.95.17-11.62-2.12-14.41.8C7.18,33.09,9.84,39.8,9.33,45c-.32,3.23,1,4.08,4,3.73a309.67,309.67,0,0,1,32.65-2c11.3-.16,11.3-.25,11.29-11.67a13.21,13.21,0,0,1,0-2c.44-3.13-.61-4.4-4-4.26C46.77,29.08,40.28,28.89,33.8,28.89ZM7.24,75.35c7.08-2.3,13.77-4.42,20.43-6.64,8.89-3,17.75-6,26.62-9,5.2-1.76,2.93-6.16,2.69-9.24s-3.58-1.67-5.29-1.22c-3.16.82-6.29.45-9.42.65-10.26.65-20.52,1.34-30.77,2-1.05.07-2,.19-2.09,1.54C8.71,60.64,8,67.85,7.24,75.35Zm34.25,50.41c8.61,0,16.26,0,23.92,0,2.34,0,3.34-.72,4-3.25C72.47,110,76,97.51,79.1,85c.25-1,3-3.13-.65-4.21-2.6-.77-4.76-1.46-6.56,1.15C61.94,96.23,52,110.58,41.49,125.76Zm30.35,0c5.41,0,10.39.26,15.33-.13,1.84-.14,5,.47,5.06-3.19,0-12.59.25-25.17-.92-37.73-.31-3.35-3.25-2.87-5.13-3.63-2.14-.87-2.55,1-3,2.74C79.49,97.66,75.7,111.49,71.84,125.74Zm23.72-3.58c14-9.87,12.37-30.59,0-36.38Z"/></g></g></g></svg>