<svg xmlns="http://www.w3.org/2000/svg" viewBox="0 0 126.93 131.24"><defs><style>.cls-1{fill:#f15b5a;}</style></defs><title>Asset 50</title><g id="Layer_2" data-name="Layer 2"><g id="Layer_1-2" data-name="Layer 1"><g id="EOjNyj"><path class="cls-1" d="M63.5,131.24H17C5.68,131.24.23,126.13.13,114.75q-.27-29.46,0-58.93c.06-7.88,2.32-14.7,11.3-16.72,2.27-.51,1.67-2.29,1.56-3.6-.24-3.08.73-4.31,4-3.56,4.15,1,3.05-2.26,3.06-4.29.07-11.92,5.71-20.31,16.07-25.84A18.52,18.52,0,0,1,45.19,0c12.49,0,25,.11,37.47.1,11.93,0,21.51,9.84,23.4,20.13.37,2.06,1.49,4,1.1,6.26-.62,3.63.11,6.33,4.8,5.53,2.37-.4,2.42,1.35,2.17,2.84-.48,3,1,4.18,3.56,5.22,7,2.83,9.19,7.26,8.89,15.24a567.57,567.57,0,0,0,.28,56.86c.8,12.77-4.68,19.06-17.39,19.06Zm0-87c-15.82,0-31.65.24-47.46-.11C9.94,44,5.75,47.14,5.75,54.39q0,30.38.15,60.75c0,7.73,3.33,10.89,11.29,11,6.49.06,13,0,19.48,0q36.74,0,73.45,0c6.71,0,10.86-3.29,10.9-8.86q.2-31.72.14-63.45c0-7.14-2.78-9.54-10.14-9.55Zm-.44-5.12c6,0,12-.07,18,0,2.53,0,4.38-.4,4-3.48-.38-2.83.79-3.82,3.58-3.68,1.49.07,3.14.21,3.51-2.37,1.21-8.57-3.87-15.19-12.42-15.32-11-.16-22-.25-32.92,0-8,.2-13.09,7.11-11.54,16,.32,1.84,1.52,1.74,3,1.58,2.62-.28,4.49.41,4,3.72-.48,3.08,1.47,3.56,3.95,3.53C51.81,39.07,57.46,39.11,63.11,39.12Zm0-35.88c-5.66,0-11.33.18-17,0-13-.49-23.25,12.38-22.94,25.72.07,3.23,2.12,3.25,4.42,3.19,2,0,4.14.18,4-3A32.91,32.91,0,0,1,32,24.23a14.25,14.25,0,0,1,14.6-13.11c11.48,0,23,.24,34.45-.1,5.89-.18,9.19,3.08,12.15,7.22,2.12,3,2.28,6.47,2,10-.25,2.75.83,4,3.68,3.95,2.33,0,4.28,0,4.54-3.15C104.5,16.07,95,3.59,82.05,3.27,75.73,3.11,69.4,3.24,63.08,3.24ZM27.24,39.1h9.42c1.19,0,2.29,0,2.38-1.72.1-1.91-1-2.14-2.48-2.14-6,0-11.91,0-17.87,0-1.07,0-2.47-.31-2.45,1.54s1,2.29,2.56,2.29Zm72.84-3.85c-3,0-6-.06-8.94,0-1.15,0-2.86-.61-2.9,1.58,0,1.77,1.06,2.24,2.57,2.24,6,0,11.92,0,17.88,0,1.18,0,2.27,0,2.35-1.75.09-2-1.08-2.09-2.52-2.08Z"/><path class="cls-1" d="M94.18,84.48c1.07,19-15,31.71-30.09,31.56-19-.19-31-12.89-31.64-30.92C31.9,68.92,45.07,53.54,64.76,54,79.31,54.28,95.56,67.62,94.18,84.48ZM63.54,114.12C79.3,114,92.84,101.91,92.85,85c0-16.22-11.86-29.18-29.43-29.44C47.1,55.27,34.26,69.27,34.29,84.38,34.32,101.46,46.86,113.79,63.54,114.12Z"/><path class="cls-1" d="M49.59,77.12c6.46,0,6.4,0,6.49-6.72,0-2.73-1.16-6.43,1.77-7.76,3.4-1.54,7.58-1.25,11.2-.18,2.18.65,2.09,3.43,2.14,5.62.21,8.92.23,8.92,9.12,9.06,5.84.1,6.84,1.65,6.92,9.3,0,5.12-2.75,5.94-7,5.86-8.94-.16-8.94,0-9,9.11-.05,6.34-.63,6.85-7.93,6.83-6.68,0-7.18-.5-7.2-7,0-9,0-9-8.22-9-7.08,0-7.79-.69-7.78-7.56,0-6.37,1.24-7.53,8-7.56Zm3.95,3.18c-2.28.27-4.28.83-6.22.66-3.8-.32-4.08,1.44-4,4.68.06,4.52,3,3.44,5.42,3.46,10.45.08,10.45.05,10.48,10.24,0,.83.07,1.67,0,2.5-.29,3.26,1.81,3.37,4.17,3.29s4.83.44,4.74-3.29c-.09-4-1.37-9.16.6-11.64,2.33-2.93,7.78-.7,11.85-1.08,1.11-.1,2.33.26,2.82-1.34,1.24-4.07-.81-7.06-5.09-7.27-3.24-.17-7.62.91-9.42-.78-2.28-2.13-.79-6.6-.71-10s-1.23-4.5-4.68-4.57c-3.69-.07-4.71,1.31-4.3,4.64.18,1.48-.08,3,.05,4.49C59.56,78.61,59.39,82.37,53.54,80.3Z"/></g></g></g></svg>