<svg xmlns="http://www.w3.org/2000/svg" viewBox="0 0 12.28 12.28"><defs><style>.cls-1{fill:#fff;fill-rule:evenodd;}</style></defs><title>inst</title><g id="Layer_2" data-name="Layer 2"><g id="Layer_2-2" data-name="Layer 2"><path class="cls-1" d="M3,6.14A3.14,3.14,0,1,1,6.14,9.28,3.14,3.14,0,0,1,3,6.14ZM9.38,0H2.9A2.91,2.91,0,0,0,0,2.9V9.38a2.91,2.91,0,0,0,2.9,2.9H9.38a2.91,2.91,0,0,0,2.9-2.9V2.9A2.91,2.91,0,0,0,9.38,0ZM2.9.73H9.38A2.18,2.18,0,0,1,11.56,2.9V9.38a2.18,2.18,0,0,1-2.18,2.18H2.9A2.18,2.18,0,0,1,.73,9.38V2.9A2.18,2.18,0,0,1,2.9.73ZM10,1.64a.64.64,0,1,0,.64.64A.64.64,0,0,0,10,1.64Zm.07,4.5a4,4,0,1,0-4,4,4,4,0,0,0,4-4Z"/></g></g></svg>