<svg xmlns="http://www.w3.org/2000/svg" viewBox="0 0 15.27 11.2"><defs><style>.cls-1{fill:#fff;fill-rule:evenodd;}</style></defs><title>yt</title><g id="Layer_2" data-name="Layer 2"><g id="Layer_2-2" data-name="Layer 2"><path class="cls-1" d="M15.12,2.42A3.58,3.58,0,0,0,14.51.84,2.19,2.19,0,0,0,13,.16C10.85,0,7.65,0,7.65,0h0S4.44,0,2.3.16A2.18,2.18,0,0,0,.77.84,3.59,3.59,0,0,0,.16,2.42,24.31,24.31,0,0,0,0,5V6.2A23.9,23.9,0,0,0,.16,8.76a3.64,3.64,0,0,0,.61,1.59A2.5,2.5,0,0,0,2.46,11c1.22.12,5.19.17,5.19.17s3.2,0,5.34-.17a2.15,2.15,0,0,0,1.52-.68,3.64,3.64,0,0,0,.61-1.59,25.3,25.3,0,0,0,.15-2.57V5c0-1.27-.15-2.57-.15-2.57Zm-4.93,3L6.06,7.66V3.19l1.87,1Z"/></g></g></svg>